<svg id="logo_casinoperalada" xmlns="http://www.w3.org/2000/svg" width="76.551" height="38.697" viewBox="0 0 76.551 38.697">
  <path id="path2" d="M14.313,20.409a2.373,2.373,0,0,1-2.282,1.361,2.676,2.676,0,0,1-2.7-2.953,2.71,2.71,0,0,1,2.665-3.011,2.46,2.46,0,0,1,2.378,1.476c.038.077.058.115.153.077l2.416-.94c.058-.038.134-.1.058-.288a5.247,5.247,0,0,0-5.043-3.106A5.614,5.614,0,0,0,6.278,18.8a5.6,5.6,0,0,0,5.772,5.733,5.458,5.458,0,0,0,5.081-3.356c.038-.1.019-.173-.153-.211l-2.435-.671c-.153-.019-.173.038-.23.115" transform="translate(0.663 1.376)" fill="#fff"/>
  <path id="path4" d="M22.774,20.6H20.512l1.112-2.474Zm4.755,3.452c-1.783-3.586-3.988-8.092-5.561-11.141-.019-.038-.364-.058-.384,0-1.476,2.761-3.835,7.555-5.522,11.141-.058.153-.058.23.077.23h2.7c.211,0,.249-.058.288-.173.153-.384.384-.94.575-1.4h3.931c.153.4.4,1.016.594,1.438.058.115.115.134.192.134h3.03c.153,0,.173-.019.077-.23" transform="translate(1.693 1.36)" fill="#fff"/>
  <path id="path6" d="M27.179,22.056c.556,1.592,1.937,2.493,4.142,2.493,2.55,0,4.6-1.112,4.6-3.6,0-2.033-1.208-3.126-3.279-3.432-.211-.038-.384-.058-.537-.077-1.457-.249-2.071-.556-2.071-1.3,0-.594.364-1.016,1.5-1.016A2.032,2.032,0,0,1,33.354,16.4c.038.077.077.115.192.058l1.9-.767c.1-.038.153-.1.115-.268-.422-1.361-1.745-2.378-3.912-2.378-2.876,0-4.314,1.476-4.314,3.586,0,2.013,1.361,3.126,3.336,3.317.115.019.268.038.384.058,1.5.173,1.956.594,1.956,1.266,0,.748-.518,1.093-1.649,1.093A2.079,2.079,0,0,1,29.4,21.04c-.038-.134-.038-.134-.173-.077l-1.994.805c-.1.019-.115.1-.058.288" transform="translate(2.868 1.378)" fill="#fff"/>
  <path id="path8" d="M39.986,13.371c0-.134-.019-.153-.153-.153h-2.7c-.153,0-.153-.019-.153.153V24.09c0,.173,0,.153.153.153h2.7c.153,0,.153-.019.153-.153V13.371Z" transform="translate(3.906 1.396)" fill="#fff"/>
  <path id="path10" d="M51.455,13.706v-.249c0-.173,0-.192-.153-.192H48.828c-.134,0-.134.019-.134.192v4.87s-3.969-3.682-6.309-5.35c-.077-.038-.153-.058-.173.077V24.118a.164.164,0,0,0,.153.153h2.454c.153,0,.153,0,.153-.153V19.152s3.835,3.528,6.289,5.35c.173.134.192.038.192-.153V13.706Z" transform="translate(4.46 1.368)" fill="#fff"/>
  <path id="path12" d="M61.046,18.781a2.733,2.733,0,1,1-5.446,0,2.735,2.735,0,1,1,5.446,0m3.03,0A5.772,5.772,0,1,0,58.3,24.533a5.717,5.717,0,0,0,5.772-5.753" transform="translate(5.55 1.374)" fill="#fff"/>
  <path id="path14" d="M5.292,29.721a1.357,1.357,0,0,1-1.438,1.515l-1.227.038V28.168H3.835a1.379,1.379,0,0,1,1.457,1.553m2.723.077c0-2.263-1.3-3.816-3.49-3.816H.134c-.058,0-.134-.019-.134.134V35.78c0,.153,0,.134.134.134H2.512c.115,0,.134-.019.134-.134V33.422S4.3,33.4,4.717,33.364c1.879-.211,3.3-1.17,3.3-3.567" transform="translate(0 2.745)" fill="#fff"/>
  <path id="path16" d="M15.351,27.974V26.191c0-.173-.019-.192-.153-.192H8.563c-.153,0-.134.019-.134.153V35.74c0,.173.019.211.153.211h6.692c.153,0,.153-.019.153-.211v-1.9c0-.077,0-.115-.019-.134H11V31.982H15.14c.1,0,.115-.038.115-.192V30.007c0-.134-.019-.173-.077-.192H11V28.147h0v-.019l.92.019h3.356a.243.243,0,0,0,.077-.173" transform="translate(0.89 2.747)" fill="#fff"/>
  <path id="path18" d="M21.65,29.527c0,.844-.441,1.438-1.227,1.457l-1.457.038V28.147h1.457a1.23,1.23,0,0,1,1.227,1.381m3.49,6c-.844-1.381-1.687-2.857-2.071-3.452a2.743,2.743,0,0,0,1.361-2.723A3.235,3.235,0,0,0,20.979,26H16.435c-.038,0-.115-.019-.115.134V35.8c0,.153,0,.134.115.134h2.4c.1,0,.115-.019.115-.134V33.036L20.634,33s1.074,1.687,1.572,2.646c.134.268.192.288.307.288H25.1c.173-.019.211-.115.038-.4" transform="translate(1.724 2.747)" fill="#fff"/>
  <path id="path20" d="M30.861,32.629H28.828l1-2.224Zm4.3,3.126c-1.611-3.241-3.6-7.306-5-10.048-.019-.038-.345-.038-.345,0-1.342,2.493-3.452,6.807-4.986,10.048-.058.153-.038.211.077.211h2.435c.192,0,.211-.038.268-.153.153-.345.345-.844.518-1.266h3.547c.153.364.364.9.537,1.3a.16.16,0,0,0,.173.115h2.742c.1-.019.115-.019.038-.211" transform="translate(2.619 2.713)" fill="#fff"/>
  <path id="path22" d="M37.9,26.018C37.882,26,37.862,26,37.8,26H35.427c-.134,0-.134-.019-.134.134V35.8c0,.153,0,.134.134.134h6.194c.115,0,.115-.019.115-.134V33.631H37.9Z" transform="translate(3.729 2.747)" fill="#fff"/>
  <path id="path24" d="M47.651,32.629H45.618l1-2.224Zm4.276,3.126c-1.611-3.241-3.6-7.306-5-10.048-.019-.038-.345-.038-.345,0-1.342,2.493-3.452,6.807-4.986,10.048-.058.153-.038.211.077.211H44.1c.192,0,.211-.038.268-.153.153-.345.345-.844.518-1.266h3.547c.153.364.364.9.537,1.3a.16.16,0,0,0,.173.115h2.742c.115-.019.134-.019.038-.211" transform="translate(4.391 2.713)" fill="#fff"/>
  <path id="path26" d="M58.023,30.91c0,1.707-.556,2.9-2.013,2.9H54.668V28.072h1.381c1.266,0,1.975,1.246,1.975,2.838m2.742.038c0-3.221-1.687-4.966-4.487-4.966H52.213c-.1,0-.115.038-.115.153V35.78c0,.153.019.134.115.134h3.739c2.876,0,4.813-1.783,4.813-4.966" transform="translate(5.504 2.745)" fill="#fff"/>
  <path id="path28" d="M65.876,32.629H63.844l1-2.224Zm4.3,3.126c-1.611-3.241-3.6-7.306-5-10.048-.019-.038-.345-.038-.345,0-1.342,2.493-3.452,6.807-4.986,10.048-.058.153-.038.211.077.211h2.435c.192,0,.211-.038.268-.153.153-.345.345-.844.518-1.266h3.547c.153.364.364.9.537,1.3a.16.16,0,0,0,.173.115h2.742c.115-.019.134-.019.038-.211" transform="translate(6.318 2.713)" fill="#fff"/>
  <path id="path30" d="M30.015,9.2a2.6,2.6,0,0,0-.058-.92c-.058-.23-.537-.249-.69-.211a3.537,3.537,0,0,0-.767.173,3.234,3.234,0,0,1-1,.5c-.384.058-.5.134-.825.153a.45.45,0,0,0-.268-.019c-.019,0-.038,0-.1.077-.038.058-.038.038-.038.268-.019.134,0,1.246,0,1.8h3.7c.019-.69.019-1.553.038-1.822" transform="translate(2.775 0.851)" fill="#a41f35"/>
  <path id="path32" d="M37.572,1.1C37.553,1,37.4.9,37.246.865a.238.238,0,0,0-.288.115,1.2,1.2,0,0,0-.038.326c0,.192,0,.268-.115.249-.115,0-.077-.077-.1-.173a3.908,3.908,0,0,1,0-.479.46.46,0,0,0-.115-.364.769.769,0,0,0-.4-.134c-.173-.019-.211.058-.23.134a4.481,4.481,0,0,1-.077.5c-.019.077-.1.1-.211.077s-.153-.058-.153-.115a5.274,5.274,0,0,0-.038-.748C35.444.136,35.31.1,35.175.079A2.761,2.761,0,0,0,34.6,0c-.288-.019-.288.1-.307.153a3.859,3.859,0,0,0-.019.5c0,.115-.077.173-.192.192A1.257,1.257,0,0,1,33.7.865c-.134-.019-.134-.1-.153-.153V.386A.234.234,0,0,0,33.3.175a4.288,4.288,0,0,0-.863.077c-.384.058-.345.211-.364.268,0,.077,0,.69-.019.709a.765.765,0,0,1-.326.134c-.211.058-.211.019-.249-.038s0-.115-.019-.326-.134-.23-.134-.23a1.112,1.112,0,0,0-.479,0,.705.705,0,0,0-.518.288.417.417,0,0,0,0,.192c.019.173.019.422-.1.5-.077.038-.211.019-.23-.038a.609.609,0,0,1-.038-.268c0-.077-.038-.192-.115-.211a1.586,1.586,0,0,0-.307,0,.627.627,0,0,0-.326.115,1.6,1.6,0,0,0-.019.23c0,.134-.038.786-.038,1.17s-.019,1.246,0,1.611a1.493,1.493,0,0,0,.173.709,4.064,4.064,0,0,0,.537.709,1.844,1.844,0,0,1,.268.594,7.693,7.693,0,0,1,.058,1.055c0,.4.019,3.547.019,3.95v.46h6.174c.019-.69.038-1.649.058-1.879.019-.326.038-1.86.058-2.32a8.275,8.275,0,0,1,.134-1.246,3.653,3.653,0,0,1,.479-.9,7.843,7.843,0,0,0,.5-.978c.019-.134.019-1.17.019-1.457S37.591,1.21,37.572,1.1" transform="translate(3.079 0)" fill="#a41f35"/>
  <path id="path34" d="M43.541,7.031a3.051,3.051,0,0,0,.153-.882c0-.173-.019-1.994-.019-1.994a.422.422,0,0,0-.1-.307.5.5,0,0,0-.307-.115c-.134,0-.173.058-.23.153s-.019.288-.038.326c0,.038-.019.058-.1.058a.437.437,0,0,1-.211-.058.2.2,0,0,1-.1-.153c0-.058-.019-.345-.019-.441,0-.115-.058-.173-.192-.23a.951.951,0,0,0-.594.019c-.077.038-.1.1-.1.211,0,.173-.038.268-.1.307A1.263,1.263,0,0,1,41.316,4a.532.532,0,0,1-.249-.019c-.058-.019-.058-.077-.077-.173a1.55,1.55,0,0,0-.019-.307c-.019-.077-.115-.115-.249-.115a.894.894,0,0,0-.422.038.352.352,0,0,0-.326.345,1.321,1.321,0,0,0-.019.134V4.27s-.1.038-.153.058a1.106,1.106,0,0,1-.288.019c-.134,0-.115-.038-.115-.115a1.4,1.4,0,0,0-.058-.422c-.038-.038-.134-.038-.23-.038a.752.752,0,0,0-.268.058.389.389,0,0,0-.192.249,3.859,3.859,0,0,1-.019.5c-.019.038-.1.058-.192.058-.077,0-.1-.019-.115-.077a.59.59,0,0,1-.019-.192.422.422,0,0,0-.077-.249c-.058-.077-.115-.077-.23-.038a.407.407,0,0,0-.192.249,1.428,1.428,0,0,0,0,.288c0,.115,0,.153-.019.173s-.058,0-.1-.019-.019-.038-.038-.134c0-.1-.038-.249-.077-.268-.038-.038-.077-.058-.192-.038s-.173.192-.192.23a5.346,5.346,0,0,0,0,.556c0,.1,0,.69-.019.94a1.788,1.788,0,0,0,.077.671,2.415,2.415,0,0,0,.173.249,6.194,6.194,0,0,0,.805.575c.192.1.556.345.594.364s0,.058-.019.058a1.55,1.55,0,0,1-.173-.038c-.1-.038-.575-.192-.863-.268-.288-.1-.709-.23-.863-.268a2.32,2.32,0,0,0-.594-.115c-.134,0-.115.326-.115.537s-.019,1.956-.019,1.956V11.46h6.635c0-.825.019-2.148.019-2.32a10.409,10.409,0,0,1,.038-1.074,1.152,1.152,0,0,1,.192-.5,1.635,1.635,0,0,0,.479-.537" transform="translate(3.822 0.354)" fill="#a41f35"/>
</svg>
