<svg id="g140" xmlns="http://www.w3.org/2000/svg" xmlns:xlink="http://www.w3.org/1999/xlink" width="55.282" height="51.551" viewBox="0 0 55.282 51.551">
  <defs>
    <radialGradient id="radial-gradient" cx="0.5" cy="0.501" r="1.947" gradientUnits="objectBoundingBox">
      <stop offset="0" stop-color="#ffe066"/>
      <stop offset="0.5" stop-color="#fdc600"/>
      <stop offset="1" stop-color="#f0b500"/>
    </radialGradient>
    <radialGradient id="radial-gradient-2" cx="0.5" cy="0.5" r="0.389" xlink:href="#radial-gradient"/>
    <radialGradient id="radial-gradient-3" cx="0.5" cy="0.5" r="0.382" xlink:href="#radial-gradient"/>
    <radialGradient id="radial-gradient-4" cx="0.5" cy="0.5" r="0.403" xlink:href="#radial-gradient"/>
    <radialGradient id="radial-gradient-5" cx="0.498" cy="0.5" r="0.366" xlink:href="#radial-gradient"/>
    <radialGradient id="radial-gradient-6" cx="0.499" cy="0.5" r="0.39" xlink:href="#radial-gradient"/>
    <radialGradient id="radial-gradient-7" cx="0.498" cy="0.499" r="0.382" xlink:href="#radial-gradient"/>
    <radialGradient id="radial-gradient-8" cx="0.501" cy="0.5" r="0.403" xlink:href="#radial-gradient"/>
    <radialGradient id="radial-gradient-9" cx="0.5" cy="0.5" r="0.358" xlink:href="#radial-gradient"/>
    <radialGradient id="radial-gradient-10" cx="0.5" cy="0.5" r="0.366" xlink:href="#radial-gradient"/>
  </defs>
  <path id="path9" d="M50.887,32.411a37.523,37.523,0,0,0-48.787,0,47.721,47.721,0,0,1,24.393-6.5A47.857,47.857,0,0,1,50.887,32.411Z" transform="translate(0.222 0.606)" fill="url(#radial-gradient)"/>
  <g id="g23" transform="translate(0.041 35.284)">
    <path id="path11" d="M5.953,38.3c-.069.041-.359.18-.47.263a.231.231,0,0,0-.055.235,22.732,22.732,0,0,0,2.363,3.469,2.425,2.425,0,0,0,1.493.9c.124.028.249.152.249.207,0,.1-.124.152-.207.193a2.347,2.347,0,0,1-.843.111,2.824,2.824,0,0,1-2.032-1c-.539-.732-1.313-1.907-1.921-2.861a3.9,3.9,0,0,0-.608-.76,3,3,0,0,0-1.078-.193c-.111,0-.18.138-.18.18-.014.263.014,2.2.055,3.082.028.636.193.857.912,1.023.263.069.359.18.359.263,0,.152-.29.193-.359.193-.636,0-.926-.1-1.963-.1-.276,0-1.064.055-1.23.055-.193,0-.4-.055-.4-.207,0-.124.138-.152.332-.235.663-.207.94-.3,1-.885.028-.47.1-2.087.1-3,0-2.349-.028-3.732-.1-4.34-.055-.567-.193-.594-.885-.76C.259,34.082.12,34,.12,33.875S.2,33.7.535,33.7h.857c.567,0,1.645-.083,2.474-.083a3.8,3.8,0,0,1,2.488.636,2.614,2.614,0,0,1,.871,1.907A2.746,2.746,0,0,1,5.953,38.3Zm-.8-3.635a2.435,2.435,0,0,0-1.506-.58,2.617,2.617,0,0,0-.732.111.616.616,0,0,0-.18.318c-.041.539-.1,3.483-.041,3.732a.308.308,0,0,0,.249.235,4.451,4.451,0,0,0,1.907-.4,2.287,2.287,0,0,0,1.009-1.893,2.774,2.774,0,0,0-.7-1.52Z" transform="translate(-0.038 -33.599)" fill="#fff"/>
    <path id="path13" d="M10.572,35.173c-.041-.7-.041-.94-.912-1.092-.346-.055-.428-.166-.428-.276s.166-.18.387-.18c.4,0,1.175.041,1.672.041.76,0,1.106-.041,1.645-.041.249,0,.387.055.387.18s-.152.221-.4.263c-.9.18-.885.567-.94.981a41.544,41.544,0,0,0-.1,4.533c0,.843.014,1.81.041,2.294.041.829.124,1.119,1.119,1.327.276.041.4.152.4.263s-.235.193-.415.193c-.788,0-1.88-.1-2.294-.1-.456,0-.594.028-1.175.028-.29,0-.4-.111-.4-.221s.152-.193.456-.263c.774-.166.829-.4.9-1.119.041-.539.083-2.142.083-3.455.028-.94,0-2.847-.028-3.358Z" transform="translate(0.927 -33.597)" fill="#fff"/>
    <path id="path15" d="M14.3,33.612c.3,0,.843.069,1.576.069.525,0,1.133-.028,1.479-.028.193,0,.359.069.359.18s-.069.221-.359.276c-.8.152-.76.484-.7.719.249.788,1.88,4.989,2.419,6.275.028.028.111.124.152.014.124-.318,1.755-4.174,2.432-5.8.359-.843-.041-1.023-.691-1.216-.207-.055-.332-.18-.332-.276s.193-.18.428-.18c.346,0,.691.028,1.2.028.428,0,1.037-.055,1.354-.055.207,0,.428.055.428.193s-.18.207-.387.249a1.808,1.808,0,0,0-1.3,1.189c-.691,1.506-1.064,2.142-1.976,4.423a34.662,34.662,0,0,0-1.41,3.635c-.055.166-.166.346-.318.346-.1,0-.207-.124-.235-.29a18.052,18.052,0,0,0-.774-2.446c-.511-1.368-1.935-5-2.156-5.542a1.893,1.893,0,0,0-1.271-1.327c-.18-.055-.346-.124-.346-.263-.028-.083.207-.166.428-.166Z" transform="translate(1.424 -33.599)" fill="#fff"/>
    <path id="path17" d="M29.089,33.682c.511,0,1.175-.014,1.41-.041.041-.014.124.1.138.166,0,.7.028,1.147.028,1.465,0,.221-.1.4-.235.4s-.207-.221-.249-.373c-.193-.815-.539-.967-1.023-1.05a15.085,15.085,0,0,0-2.17-.055c-.028,0-.193.083-.235.428-.028.387-.069,3.262-.041,3.5.014.055.028.152.111.152h1c1.437,0,1.506-.055,1.783-.774.1-.235.18-.318.276-.318s.138.207.124.332c-.028.428-.041.732-.041,1.106,0,.415.028.636.041.94.014.276-.055.442-.166.442s-.221-.166-.263-.332c-.221-.7-.276-.746-1.216-.8-.484-.028-1.106-.028-1.52-.028-.055,0-.138.111-.138.138-.055.318-.041,1.755-.041,2.4a4.564,4.564,0,0,0,.152,1.271.476.476,0,0,0,.29.332,9.222,9.222,0,0,0,1.4.111,8.276,8.276,0,0,0,1.451-.111,1.935,1.935,0,0,0,1.271-1.133c.166-.332.263-.428.346-.428.111,0,.152.249.124.415a11.508,11.508,0,0,1-.553,1.645c-.041.055-.18.18-.263.18-.166,0-2.488-.124-4.975-.124-.815,0-1.147.083-1.728.083-.29,0-.456-.028-.456-.193,0-.111.18-.18.428-.249.76-.18,1.05-.29,1.119-1.119.041-.65.124-2.46.124-4.353,0-1.824.014-2.142-.014-2.6-.028-.677-.18-.857-.857-1.009-.318-.083-.442-.138-.442-.263s.207-.221.428-.221c.719,0,1.313.055,2.35.055h2.239Z" transform="translate(2.464 -33.599)" fill="#fff"/>
    <path id="path19" d="M37.49,38.3c-.069.041-.359.18-.47.263a.231.231,0,0,0-.055.235,22.731,22.731,0,0,0,2.363,3.469,2.463,2.463,0,0,0,1.493.9c.124.028.249.152.249.207,0,.1-.124.152-.207.193a2.347,2.347,0,0,1-.843.111,2.824,2.824,0,0,1-2.032-1c-.539-.732-1.313-1.907-1.921-2.861a3.9,3.9,0,0,0-.608-.76,3,3,0,0,0-1.078-.193c-.111,0-.18.138-.18.18-.014.263.014,2.2.055,3.082.028.636.193.857.912,1.023.263.069.359.18.359.263,0,.152-.29.193-.359.193-.636,0-.926-.1-1.963-.1-.276,0-1.064.055-1.23.055-.193,0-.4-.055-.4-.207,0-.124.138-.152.332-.235.663-.207.94-.3,1-.885.028-.47.1-2.087.1-3,0-2.349-.028-3.732-.1-4.34-.055-.567-.193-.594-.885-.76-.235-.055-.359-.138-.359-.263s.083-.18.415-.18h.857c.567,0,1.645-.083,2.46-.083a3.8,3.8,0,0,1,2.488.636,2.614,2.614,0,0,1,.871,1.907A2.7,2.7,0,0,1,37.49,38.3Zm-.8-3.635a2.435,2.435,0,0,0-1.506-.58,2.689,2.689,0,0,0-.732.111c-.083.028-.18.263-.18.318-.041.539-.1,3.483-.041,3.732a.308.308,0,0,0,.249.235,4.451,4.451,0,0,0,1.907-.4,2.287,2.287,0,0,0,1.009-1.893,2.774,2.774,0,0,0-.7-1.52Z" transform="translate(3.294 -33.599)" fill="#fff"/>
    <path id="path21" d="M46.249,34.015c.124.4.373,1.092.663,1.866.788,2.2,1.907,5.2,2.17,5.8.5,1.244.732,1.354,1.424,1.52.235.069.359.152.359.263s-.111.193-.484.193c-.5,0-1.23-.069-1.893-.069-.484,0-.691.028-1.064.028s-.47-.111-.47-.18.1-.193.359-.249c.719-.152.663-.456.608-.774a23.631,23.631,0,0,0-.843-2.584c-.014-.055-.069-.152-.511-.152-.829,0-2.156.014-2.474.055a.247.247,0,0,0-.166.124,12.428,12.428,0,0,0-.788,2.64c0,.18.055.442.732.65.263.069.4.166.4.276,0,.152-.221.193-.415.193-.263,0-.636-.041-1.189-.041s-1.341.069-1.562.069c-.276,0-.346-.055-.346-.152s.111-.221.332-.3c.76-.263.954-.3,1.382-1.285.346-.774,2.059-5.335,2.723-6.952a.983.983,0,0,0,.1-.318.227.227,0,0,1,.028-.124c.138-.18.346-.567.456-.732.111-.124.166-.18.235-.18s.124.083.235.415Zm.484,4.879c-.263-.774-1.037-3.027-1.175-3.248-.041-.1-.069-.111-.124,0-.276.719-1.05,2.833-1.175,3.3-.014.055.014.111.069.111.608-.014,1.852,0,2.35-.041C46.705,39.018,46.747,38.949,46.733,38.893Z" transform="translate(4.265 -33.6)" fill="#fff"/>
  </g>
  <g id="g106" transform="translate(0.549 0.152)">
    <path id="path32" d="M41.607,9.3c-.428-.138-.594.387-1.534.083s-.76-.829-1.189-.967a.26.26,0,0,0-.346.138L33.688,25.234c.76.221,1.506.456,2.239.732L41.8,9.617A.266.266,0,0,0,41.607,9.3Z" transform="translate(3.01 -1.131)" fill="url(#radial-gradient-2)"/>
    <path id="path41" d="M35.243,12.2c-.4-.083-.5.415-1.368.221s-.76-.677-1.161-.76a.249.249,0,0,0-.3.166l-2.2,12.162c.774.138,1.534.3,2.294.484l2.944-12.01A.238.238,0,0,0,35.243,12.2Z" transform="translate(2.642 -0.786)" fill="url(#radial-gradient-3)"/>
    <path id="path50" d="M48.77,7.237c-.456-.207-.691.359-1.686-.083s-.732-1-1.189-1.189a.293.293,0,0,0-.387.111L37.05,26.793c.732.3,1.451.622,2.156.967l9.73-20.137a.3.3,0,0,0-.166-.387Z" transform="translate(3.365 -1.391)" fill="url(#radial-gradient-4)"/>
    <path id="path59" d="M31.1,6.8c-.442-.041-.511.511-1.479.4s-.926-.663-1.368-.7a.27.27,0,0,0-.3.207L26.675,24.038c.788.055,1.576.138,2.35.249l2.35-17.207A.286.286,0,0,0,31.1,6.8Z" transform="translate(2.269 -1.331)" fill="url(#radial-gradient-5)"/>
    <path id="path68" d="M10.23,8.414c-.428.138-.263.663-1.189.967S7.935,9.161,7.507,9.3a.266.266,0,0,0-.193.318l5.874,16.336c.732-.263,1.479-.511,2.239-.732L10.575,8.553A.26.26,0,0,0,10.23,8.414Z" transform="translate(0.222 -1.131)" fill="url(#radial-gradient-6)"/>
    <path id="path77" d="M16.124,11.663c-.4.083-.29.58-1.161.76s-.981-.3-1.368-.221a.244.244,0,0,0-.207.276l2.944,12.01c.76-.18,1.52-.346,2.294-.484l-2.2-12.162A.246.246,0,0,0,16.124,11.663Z" transform="translate(0.864 -0.786)" fill="url(#radial-gradient-7)"/>
    <path id="path86" d="M3.568,5.966c-.456.207-.207.76-1.189,1.189S1.15,7.044.694,7.238a.3.3,0,0,0-.18.373l9.73,20.137c.7-.346,1.424-.663,2.156-.967L3.969,6.077A.285.285,0,0,0,3.568,5.966Z" transform="translate(-0.497 -1.392)" fill="url(#radial-gradient-8)"/>
    <path id="path95" d="M25.919,1.825c-.5,0-.5.608-1.576.608s-1.078-.608-1.576-.608a.3.3,0,0,0-.318.263l.7,22.375c.387-.014.788-.014,1.189-.014s.788.014,1.189.014l.7-22.375A.3.3,0,0,0,25.919,1.825Z" transform="translate(1.822 -1.825)" fill="url(#radial-gradient-9)"/>
    <path id="path104" d="M20.522,6.5c-.442.041-.387.594-1.368.7s-1.037-.456-1.479-.4a.274.274,0,0,0-.263.276l2.35,17.207c.774-.111,1.562-.193,2.35-.249L20.84,6.707A.277.277,0,0,0,20.522,6.5Z" transform="translate(1.29 -1.331)" fill="url(#radial-gradient-10)"/>
  </g>
  <rect id="rect108" width="55.282" height="51.509" transform="translate(0 0)" fill="none"/>
  <g id="g138" transform="translate(3.621 47.791)">
    <g id="g136">
      <path id="path110" d="M5.956,45.1a4.164,4.164,0,0,0,.415.1c.028,0,.083.041.083.166s.028.346.041.47-.041.18-.083.18-.055-.055-.083-.138a.87.87,0,0,0-.221-.4,1.32,1.32,0,0,0-.857-.276,1.444,1.444,0,0,0-1.424,1.52,1.862,1.862,0,0,0,.193.885,1.543,1.543,0,0,0,1.354.857,1.206,1.206,0,0,0,1.078-.677c.069-.111.1-.138.111-.138.055,0,.055.124.055.18a1.648,1.648,0,0,1-.221.539.553.553,0,0,1-.166.138,3.121,3.121,0,0,1-.981.152,2.06,2.06,0,0,1-1.52-.622,1.789,1.789,0,0,1-.456-1.23,1.737,1.737,0,0,1,.594-1.285,2.231,2.231,0,0,1,1.451-.5,2.679,2.679,0,0,1,.636.083Z" transform="translate(-3.275 -44.902)" fill="#fff"/>
      <path id="path112" d="M8.636,45.151c.041.138.138.387.235.663.276.788.677,1.852.774,2.059.18.442.263.484.511.539.083.028.124.055.124.1s-.041.069-.166.069c-.18,0-.442-.028-.677-.028-.166,0-.249.014-.387.014s-.166-.041-.166-.069.028-.069.124-.083c.263-.055.235-.166.221-.276a6.986,6.986,0,0,0-.3-.912c0-.028-.028-.055-.18-.055a7.68,7.68,0,0,0-.885.028c-.028,0-.041.028-.055.041a4.189,4.189,0,0,0-.276.94c0,.069.028.152.263.235.1.028.152.055.152.1s-.083.069-.152.069c-.1,0-.221-.014-.428-.014s-.484.028-.553.028c-.1,0-.124-.028-.124-.055s.041-.083.111-.111a.632.632,0,0,0,.5-.456c.124-.276.732-1.893.967-2.474a.186.186,0,0,0,.028-.111.051.051,0,0,1,.014-.041c.041-.069.124-.207.166-.263s.055-.069.083-.069.041.014.083.138ZM8.8,46.892c-.1-.276-.373-1.078-.415-1.147-.014-.028-.028-.041-.041,0-.1.263-.373,1.009-.415,1.175,0,.028,0,.041.028.041.221,0,.663,0,.843-.014C8.788,46.934,8.816,46.906,8.8,46.892Z" transform="translate(-2.914 -44.902)" fill="#fff"/>
      <path id="path114" d="M12.195,45.109c.028.014.069.1.069.1.014.1.055.415.055.442,0,.1,0,.138-.041.138a.144.144,0,0,1-.124-.111.861.861,0,0,0-.263-.387.646.646,0,0,0-.387-.124.6.6,0,0,0-.622.622c0,.387.276.553.746.871.415.276.746.553.746,1.037a.952.952,0,0,1-.442.76,1.514,1.514,0,0,1-.732.193,2.128,2.128,0,0,1-.7-.138.4.4,0,0,1-.124-.166c-.028-.18-.083-.415-.083-.511a.176.176,0,0,1,.069-.1c.041,0,.124.138.193.3a.847.847,0,0,0,.7.428.624.624,0,0,0,.65-.65c0-.221-.111-.47-.677-.829-.456-.29-.774-.608-.774-1.064a.867.867,0,0,1,.29-.65,1.13,1.13,0,0,1,.8-.263,2.578,2.578,0,0,1,.65.1Z" transform="translate(-2.534 -44.902)" fill="#fff"/>
      <path id="path116" d="M13.195,45.628c-.014-.249-.014-.332-.318-.387-.124-.028-.152-.055-.152-.1s.055-.069.138-.069c.138,0,.415.014.58.014.263,0,.387-.014.58-.014.083,0,.138.028.138.069s-.055.069-.138.1c-.3.069-.3.193-.332.346-.028.18-.028.525-.028,1.576,0,.29,0,.622.014.8.014.29.041.387.387.456.1.014.138.055.138.1s-.083.069-.138.069c-.276,0-.65-.028-.8-.028s-.207.014-.4.014c-.1,0-.138-.041-.138-.069s.055-.069.166-.1c.263-.055.29-.138.318-.387.014-.193.028-.746.028-1.2-.028-.346-.028-1.009-.041-1.189Z" transform="translate(-2.277 -44.895)" fill="#fff"/>
      <path id="path118" d="M14.578,45.079c.124,0,.387.014.65.014a.244.244,0,0,1,.111.069c.083.1.221.263.428.525.235.3,1.424,1.589,1.783,1.99.028.028.055-.028.055-.041.028-.166.014-.746.014-1.52,0-.18-.014-.373-.028-.539,0-.111-.041-.235-.332-.332-.111-.028-.138-.069-.138-.124s.069-.055.138-.055h.456c.193,0,.359-.028.511-.028.1,0,.124.014.124.055s-.028.083-.124.111c-.235.055-.332.1-.346.387-.014.193-.055,1.244-.055,2.17,0,.221.041.622.041.719,0,.055-.028.111-.069.111-.069,0-.193-.111-.235-.166-.1-.111-.193-.249-.332-.428-.511-.608-1.437-1.645-1.921-2.225-.028-.028-.055-.014-.055.014,0,.138-.028.29-.028.719,0,.484-.014,1.313,0,1.479.028.249.083.332.332.4.111.028.138.069.138.1,0,.055-.069.069-.166.069-.152,0-.387-.028-.58-.028-.124,0-.263.014-.346.014s-.138,0-.138-.055.055-.069.111-.1c.249-.083.359-.111.373-.511.028-.428.1-1.728.1-2.17a.483.483,0,0,0-.041-.263c-.152-.18-.207-.18-.456-.249-.055-.014-.124-.041-.124-.083-.028,0,.028-.028.152-.028Z" transform="translate(-2.098 -44.899)" fill="#fff"/>
      <path id="path120" d="M22.125,46.78a1.921,1.921,0,0,1-.76,1.562,1.991,1.991,0,0,1-1.064.318,1.875,1.875,0,0,1-1.4-.608,1.779,1.779,0,0,1-.442-1.216,1.722,1.722,0,0,1,.7-1.437,1.866,1.866,0,0,1,1.106-.373A1.764,1.764,0,0,1,22.125,46.78ZM19.4,45.495a1.719,1.719,0,0,0-.415,1.258,1.654,1.654,0,0,0,1.451,1.714.883.883,0,0,0,.7-.263,1.688,1.688,0,0,0,.456-1.271,1.9,1.9,0,0,0-.65-1.465,1.391,1.391,0,0,0-.8-.29,1.241,1.241,0,0,0-.746.318Z" transform="translate(-1.67 -44.901)" fill="#fff"/>
      <path id="path122" d="M25.295,45.9c0,.318-.318.47-.525.594a.019.019,0,0,0,0,.028,4.946,4.946,0,0,1,.885.843c.028.041.041.028.083,0a6.832,6.832,0,0,0,.553-.746c.069-.111.069-.138.069-.166s-.069-.083-.235-.111c-.041,0-.111-.028-.111-.069s.041-.069.138-.069a5.381,5.381,0,0,0,.539-.014c.111-.014.318-.041.387-.041s.124.028.124.055-.041.069-.124.083a1.251,1.251,0,0,0-.636.456c-.166.18-.5.594-.65.76a.063.063,0,0,0,0,.069c.083.124.193.263.29.415a.676.676,0,0,0,.594.29.764.764,0,0,0,.4-.124c.041-.028.055,0,.055.028a.264.264,0,0,1-.1.166,1.127,1.127,0,0,1-.719.249.954.954,0,0,1-.346-.055.428.428,0,0,1-.221-.221,4.612,4.612,0,0,0-.249-.442s-.028-.014-.028,0a2.987,2.987,0,0,1-.622.58.917.917,0,0,1-.511.138.947.947,0,0,1-.954-.954,1.067,1.067,0,0,1,.5-.815,3.543,3.543,0,0,1,.318-.221c.014,0,.014-.028,0-.028a.842.842,0,0,1-.359-.622.739.739,0,0,1,.249-.553.813.813,0,0,1,.511-.193.774.774,0,0,1,.691.691ZM25.35,47.8c.028-.028.028-.069-.028-.124a4.893,4.893,0,0,0-.954-.94.138.138,0,0,0-.124.014,1.028,1.028,0,0,0-.456.8.744.744,0,0,0,.235.525.753.753,0,0,0,.525.207,1.106,1.106,0,0,0,.8-.484Zm-1.161-1.963a.81.81,0,0,0,.428.608c.028.014.055,0,.069,0a.65.65,0,0,0,.152-.138.6.6,0,0,0,.1-.373c0-.18-.1-.511-.415-.511-.1-.014-.332.083-.332.415Z" transform="translate(-1.15 -44.881)" fill="#fff"/>
      <path id="path124" d="M30.34,46.718c-.028.014-.124.069-.166.1a.148.148,0,0,0-.028.083,8.294,8.294,0,0,0,.829,1.216.9.9,0,0,0,.525.318c.041.014.083.055.083.069s-.041.055-.069.069a.861.861,0,0,1-.29.041,1.047,1.047,0,0,1-.719-.346c-.193-.263-.456-.677-.677-1.009a.924.924,0,0,0-.221-.263.948.948,0,0,0-.387-.069.074.074,0,0,0-.069.069c0,.1,0,.774.014,1.078.014.221.069.3.318.359.1.028.124.069.124.1,0,.055-.1.069-.124.069-.221,0-.332-.028-.691-.028-.1,0-.373.028-.428.028s-.138-.028-.138-.069.055-.055.124-.083c.235-.069.332-.111.346-.318.014-.166.028-.732.028-1.064,0-.829-.014-1.313-.028-1.52s-.069-.207-.3-.263c-.083-.028-.124-.055-.124-.1s.028-.069.138-.069h.3c.193,0,.58-.028.871-.028a1.281,1.281,0,0,1,.871.221.894.894,0,0,1,.3.677A.855.855,0,0,1,30.34,46.718Zm-.29-1.271a.843.843,0,0,0-.539-.207,1.116,1.116,0,0,0-.263.041.245.245,0,0,0-.069.111c-.014.193-.028,1.23-.014,1.313.014.041.055.083.083.083a1.8,1.8,0,0,0,.677-.138.842.842,0,0,0,.359-.663.807.807,0,0,0-.235-.539Z" transform="translate(-0.639 -44.894)" fill="#fff"/>
      <path id="path126" d="M33.256,45.1a4.9,4.9,0,0,0,.5-.014.062.062,0,0,1,.041.055c0,.249.014.4.014.511,0,.069-.028.138-.083.138s-.069-.069-.083-.124c-.069-.29-.193-.332-.359-.359a6.143,6.143,0,0,0-.76-.028c-.014,0-.069.028-.083.152s-.028,1.147-.014,1.23c0,.028.014.055.041.055h.346c.511,0,.525-.014.622-.263.028-.083.069-.111.1-.111s.041.069.041.124c-.014.152-.014.263-.014.387,0,.152.014.221.014.332s-.014.152-.055.152-.069-.055-.1-.124c-.069-.249-.1-.263-.428-.276-.166-.014-.387-.014-.525-.014-.028,0-.041.041-.041.055a7.893,7.893,0,0,0-.014.843,1.824,1.824,0,0,0,.055.442.24.24,0,0,0,.1.124,3.294,3.294,0,0,0,.484.041,2.37,2.37,0,0,0,.511-.041.643.643,0,0,0,.442-.4c.055-.124.1-.152.124-.152s.055.083.041.138a3.572,3.572,0,0,1-.193.58.16.16,0,0,1-.1.069c-.055,0-.871-.041-1.741-.041-.29,0-.4.028-.608.028-.1,0-.166-.014-.166-.069s.069-.069.152-.083c.263-.069.373-.1.387-.387.014-.221.041-.857.041-1.52V45.64c-.014-.235-.069-.3-.3-.359-.111-.028-.152-.055-.152-.1s.069-.083.152-.083c.249,0,.456.028.815.028h.8Z" transform="translate(-0.308 -44.894)" fill="#fff"/>
      <path id="path128" d="M36.27,45.109c.028.014.069.1.069.1.014.1.055.415.055.442,0,.1,0,.138-.041.138a.144.144,0,0,1-.124-.111.861.861,0,0,0-.263-.387.646.646,0,0,0-.387-.124.6.6,0,0,0-.622.622c0,.387.276.553.746.871.415.276.746.553.746,1.037a.952.952,0,0,1-.442.76,1.514,1.514,0,0,1-.732.193,2.128,2.128,0,0,1-.7-.138.4.4,0,0,1-.124-.166c-.028-.18-.083-.415-.083-.511a.176.176,0,0,1,.069-.1c.041,0,.124.138.193.3a.844.844,0,0,0,.691.428.624.624,0,0,0,.65-.65c0-.221-.111-.47-.677-.829-.456-.29-.774-.608-.774-1.064a.867.867,0,0,1,.29-.65,1.13,1.13,0,0,1,.8-.263A2.6,2.6,0,0,1,36.27,45.109Z" transform="translate(0.009 -44.902)" fill="#fff"/>
      <path id="path130" d="M40.525,46.78a1.921,1.921,0,0,1-.76,1.562,1.991,1.991,0,0,1-1.064.318,1.875,1.875,0,0,1-1.4-.608,1.779,1.779,0,0,1-.442-1.216,1.722,1.722,0,0,1,.7-1.437,1.866,1.866,0,0,1,1.106-.373,1.764,1.764,0,0,1,1.852,1.755ZM37.8,45.495a1.719,1.719,0,0,0-.415,1.258,1.654,1.654,0,0,0,1.451,1.714.883.883,0,0,0,.7-.263A1.688,1.688,0,0,0,40,46.932a1.9,1.9,0,0,0-.65-1.465,1.391,1.391,0,0,0-.8-.29,1.241,1.241,0,0,0-.746.318Z" transform="translate(0.273 -44.901)" fill="#fff"/>
      <path id="path132" d="M42.813,46.718c-.028.014-.124.069-.166.1a.148.148,0,0,0-.028.083,8.294,8.294,0,0,0,.829,1.216.9.9,0,0,0,.525.318c.041.014.083.055.083.069s-.041.055-.069.069a.861.861,0,0,1-.29.041,1.047,1.047,0,0,1-.719-.346c-.193-.263-.456-.677-.677-1.009a1.228,1.228,0,0,0-.221-.263.948.948,0,0,0-.387-.069.074.074,0,0,0-.069.069c0,.1,0,.774.028,1.078.014.221.069.3.318.359.1.028.124.069.124.1,0,.055-.1.069-.124.069-.221,0-.332-.028-.691-.028-.1,0-.373.028-.428.028s-.138-.028-.138-.069.041-.055.111-.083c.235-.069.332-.111.346-.318.014-.166.028-.732.028-1.064,0-.829-.014-1.313-.028-1.52s-.069-.207-.318-.263c-.083-.028-.124-.055-.124-.1s.028-.069.138-.069h.3c.193,0,.58-.028.871-.028a1.281,1.281,0,0,1,.871.221.894.894,0,0,1,.3.677.761.761,0,0,1-.4.732Zm-.276-1.271a.836.836,0,0,0-.525-.207,1.116,1.116,0,0,0-.263.041.245.245,0,0,0-.069.111c-.014.193-.028,1.23-.014,1.313.014.041.055.083.083.083a1.731,1.731,0,0,0,.677-.138.842.842,0,0,0,.359-.663,1,1,0,0,0-.249-.539Z" transform="translate(0.68 -44.894)" fill="#fff"/>
      <path id="path134" d="M46.506,45.106a.622.622,0,0,0,.359-.1c.041-.028.055-.028.069-.028s.041.041.028.124a3.546,3.546,0,0,0-.124.608.1.1,0,0,1-.1.1c-.041,0-.055-.041-.069-.166-.028-.276-.1-.3-.428-.318-.1,0-.691,0-.746.014-.028,0-.055.055-.055.069v1.313c0,.622,0,1.133.028,1.327.028.249.055.3.387.387.069.014.138.055.138.1s-.1.069-.152.069-.373-.028-.608-.028c-.263,0-.539.041-.608.041-.111,0-.166-.028-.166-.069s.055-.083.1-.1c.373-.083.387-.18.4-.58.014-.318.041-1.41.041-1.824V45.41c0-.041-.028-.069-.041-.069-.111-.014-.58-.028-.663-.028-.207,0-.318.028-.4.124a.944.944,0,0,0-.18.276c-.041.111-.083.111-.1.111s-.055-.069-.055-.124a5.318,5.318,0,0,0,.1-.7.089.089,0,0,1,.083-.083c.028,0,.028.041.083.083a.306.306,0,0,0,.18.1c.138.014.567.028,1.258.028.3,0,1.037,0,1.244-.014Z" transform="translate(0.981 -44.912)" fill="#fff"/>
    </g>
  </g>
</svg>
