<svg xmlns="http://www.w3.org/2000/svg" width="88.451" height="36.801" viewBox="0 0 88.451 36.801">
  <g id="g36" transform="translate(-0.111)">
    <path id="path2" d="M17.075,41.914a2.618,2.618,0,0,1-2.524,1.506,2.963,2.963,0,0,1-2.989-3.277c0-1.926,1.151-3.343,2.945-3.343a2.67,2.67,0,0,1,2.613,1.638c.044.089.044.133.155.089l2.679-1.041c.066-.044.133-.111.044-.332a5.755,5.755,0,0,0-5.579-3.432,6.366,6.366,0,0,0,.089,12.731,6.053,6.053,0,0,0,5.624-3.72c.044-.111.022-.2-.155-.244l-2.7-.731c-.133,0-.155.066-.2.155Z" transform="translate(0.859 -21.788)" fill="#fff"/>
    <path id="path4" d="M31.692,45.937c-1.971-3.963-4.428-8.967-6.133-12.332-.022-.044-.421-.044-.421,0-1.638,3.055-4.229,8.347-6.111,12.332-.066.177-.044.244.089.244H22.1c.244,0,.266-.044.332-.2.177-.421.421-1.041.62-1.55H27.4c.177.443.443,1.107.664,1.594.044.133.133.133.221.133h3.365c.133.022.133,0,.044-.221Zm-5.269-3.83h-2.5l1.218-2.723Z" transform="translate(2.006 -21.804)" fill="#fff"/>
    <path id="path6" d="M31.3,43.727c.62,1.771,2.148,2.745,4.583,2.745,2.812,0,5.092-1.218,5.092-3.985,0-2.236-1.328-3.476-3.631-3.786-.244-.044-.421-.066-.6-.089-1.616-.266-2.28-.62-2.28-1.439,0-.664.4-1.129,1.661-1.129a2.254,2.254,0,0,1,2.015,1.417c.044.089.089.133.221.066l2.1-.841c.111-.044.177-.111.133-.31-.465-1.506-1.948-2.635-4.34-2.635-3.188,0-4.782,1.638-4.782,3.963,0,2.236,1.506,3.454,3.675,3.675a3.025,3.025,0,0,0,.421.044c1.661.2,2.17.664,2.17,1.395,0,.819-.576,1.2-1.816,1.2a2.333,2.333,0,0,1-2.17-1.461c-.044-.155-.044-.155-.2-.089l-2.214.908c-.111.066-.111.155-.044.354Z" transform="translate(3.302 -21.786)" fill="#fff"/>
    <path id="path8" d="M45.474,34.137c0-.133-.022-.155-.177-.155H42.308c-.155,0-.155-.022-.155.155V46c0,.177,0,.155.155.155H45.3c.155,0,.177-.022.177-.155V34.137Z" transform="translate(4.453 -21.761)" fill="#fff"/>
    <path id="path10" d="M58.149,34.5v-.288c0-.177,0-.221-.177-.221H55.248c-.155,0-.155.022-.155.221V39.6s-4.406-4.074-6.974-5.912c-.089-.044-.177-.066-.2.089V46.017a.172.172,0,0,0,.177.155h2.7c.155,0,.155,0,.155-.155V40.527s4.229,3.9,6.952,5.934c.2.133.221.044.221-.177V34.5Z" transform="translate(5.063 -21.796)" fill="#fff"/>
    <path id="path12" d="M72.127,40.119a6.377,6.377,0,1,0-6.376,6.354A6.308,6.308,0,0,0,72.127,40.119Zm-3.365,0a3.022,3.022,0,1,1-6.022,0,3.024,3.024,0,1,1,6.022,0Z" transform="translate(6.273 -21.786)" fill="#fff"/>
    <path id="path14" d="M7.761,50c0-1.55-1.018-2.458-2.7-2.458H.255c-.133,0-.155.022-.155.133v8.989c0,.177.022.2.133.2h5.2a2.414,2.414,0,0,0,2.635-2.524,2.215,2.215,0,0,0-1.9-2.28A2.039,2.039,0,0,0,7.761,50Zm-2.5.376a.8.8,0,0,1-.886.886H2.536V49.488H4.373A.786.786,0,0,1,5.259,50.373Zm.2,3.587a.9.9,0,0,1-.952,1H2.536V52.942H4.506a.949.949,0,0,1,.952,1.018Z" transform="translate(0.011 -20.329)" fill="#fff"/>
    <path id="path16" d="M17.833,56.713c-1.506-3.033-3.388-6.864-4.694-9.432-.022-.022-.31-.044-.332,0-1.262,2.347-3.255,6.4-4.694,9.432-.044.133-.044.2.066.2h2.28c.177,0,.2-.044.244-.155.133-.332.31-.8.487-1.173h3.321c.133.354.354.841.509,1.218.044.089.089.111.155.111h2.568c.155,0,.155-.022.089-.2ZM13.8,53.791H11.9l.93-2.081Z" transform="translate(0.854 -20.359)" fill="#fff"/>
    <path id="path18" d="M26.864,56.506c-.8-1.284-1.572-2.679-1.948-3.255A2.585,2.585,0,0,0,26.2,50.683a3.038,3.038,0,0,0-3.255-3.144H18.694c-.044,0-.111-.022-.111.133V56.75c0,.133,0,.133.111.133h2.258c.089,0,.111-.022.111-.133v-2.59l1.572-.022s1,1.572,1.461,2.48c.133.244.177.266.288.266H26.82c.177,0,.2-.089.044-.376Zm-3.277-5.624a1.208,1.208,0,0,1-1.151,1.373l-1.373.044V49.6h1.351a1.136,1.136,0,0,1,1.173,1.284Z" transform="translate(1.963 -20.329)" fill="#fff"/>
    <path id="path20" d="M34.071,53.645A2,2,0,0,1,32.145,54.8a2.274,2.274,0,0,1-2.3-2.5A2.325,2.325,0,0,1,32.1,49.726a2.06,2.06,0,0,1,2.015,1.262c.022.066.044.089.133.066l2.059-.8c.044-.022.111-.089.044-.244a4.454,4.454,0,0,0-4.273-2.635,4.871,4.871,0,0,0,.066,9.742,4.6,4.6,0,0,0,4.3-2.856c.022-.089.022-.155-.133-.177l-2.059-.554c-.133-.022-.155.044-.177.111Z" transform="translate(2.881 -20.346)" fill="#fff"/>
    <path id="path22" d="M43.787,49.574a.159.159,0,0,0,.089-.155V47.736c0-.155-.022-.177-.155-.177H37.5c-.133,0-.133.022-.133.133v8.989c0,.155.022.2.155.2H43.81c.133,0,.155-.022.155-.2v-1.9H39.78V53.161h3.875c.089,0,.111-.044.111-.177V51.3c0-.155-.022-.2-.133-.2H39.78v-1.55h0V49.53l1.041.022h2.967Z" transform="translate(3.948 -20.327)" fill="#fff"/>
    <path id="path24" d="M48.4,47.67c0-.111-.022-.111-.133-.111H46.03c-.133,0-.133-.022-.133.133V56.77c0,.133,0,.133.133.133h5.823c.111,0,.111-.022.111-.133V54.733H48.4Z" transform="translate(4.849 -20.327)" fill="#fff"/>
    <path id="path26" d="M61.847,52.27a4.871,4.871,0,1,0-4.871,4.871A4.815,4.815,0,0,0,61.847,52.27Zm-2.568,0a2.312,2.312,0,1,1-2.3-2.524A2.294,2.294,0,0,1,59.279,52.27Z" transform="translate(5.505 -20.343)" fill="#fff"/>
    <path id="path28" d="M70.652,47.718c0-.111-.022-.133-.133-.133H68.438c-.111,0-.111.022-.111.155v4.118s-3.365-3.122-5.336-4.517q-.1-.066-.133.066V56.8c.022.044.044.111.133.111h2.081c.133,0,.133,0,.133-.133V52.566s3.255,2.989,5.314,4.539c.111.089.155.044.155-.044V47.718Z" transform="translate(6.641 -20.352)" fill="#fff"/>
    <path id="path30" d="M80.989,56.713C79.484,53.68,77.6,49.85,76.3,47.281c-.022-.022-.31-.044-.332,0-1.262,2.347-3.255,6.4-4.672,9.432-.044.133-.044.2.066.2h2.28c.177,0,.2-.044.244-.155.133-.332.31-.8.487-1.173H77.69c.133.354.354.841.509,1.218.044.089.089.111.155.111h2.568C81.056,56.913,81.056,56.89,80.989,56.713Zm-4.03-2.923h-1.9l.93-2.081Z" transform="translate(7.529 -20.359)" fill="#fff"/>
    <path id="path32" d="M47.623,28.714h0c0-.044-.089-.066-.089-.066a4.813,4.813,0,0,1-3.255-3.166l-.066-.244s-.022-.066-.066-.066h0c-.044,0-.066.066-.066.066l-.066.244a4.813,4.813,0,0,1-3.255,3.166s-.089.022-.089.066h0c0,.044.089.066.089.066a4.813,4.813,0,0,1,3.255,3.166l.066.244s.022.066.066.066h0c.044,0,.066-.066.066-.066l.066-.244a4.813,4.813,0,0,1,3.255-3.166C47.512,28.8,47.6,28.78,47.623,28.714Z" transform="translate(4.297 -22.692)" fill="#e30613"/>
    <path id="path34" d="M50.225,24.766h0c0-.022-.044-.044-.044-.044A2.5,2.5,0,0,1,48.5,23.084l-.044-.133a.022.022,0,0,0-.022-.022h0a.022.022,0,0,0-.022.022l-.044.133a2.5,2.5,0,0,1-1.683,1.638.043.043,0,0,0-.044.044h0c0,.022.044.044.044.044a2.5,2.5,0,0,1,1.683,1.638l.044.133a.022.022,0,0,0,.022.022h0a.022.022,0,0,0,.022-.022l.044-.133a2.5,2.5,0,0,1,1.683-1.638A.043.043,0,0,0,50.225,24.766Z" transform="translate(4.927 -22.929)" fill="#e30613"/>
  </g>
</svg>
