<svg xmlns="http://www.w3.org/2000/svg" width="88.453" height="36.786" viewBox="0 0 88.453 36.786">
  <g id="g36" transform="translate(-0.089)">
    <path id="path2" d="M47.594,25.887h0c0-.044-.089-.066-.089-.066a4.816,4.816,0,0,1-3.257-3.168l-.066-.244s-.022-.066-.066-.066-.066.066-.066.066l-.066.244a4.816,4.816,0,0,1-3.257,3.168s-.089.022-.089.066h0c0,.044.089.066.089.066A4.831,4.831,0,0,1,43.982,29.1l.066.244s.022.066.066.066.066-.066.066-.066l.066-.244a4.743,4.743,0,0,1,3.257-3.146c0,.022.089,0,.089-.066h0" transform="translate(4.293 -19.883)" fill="#ec6608"/>
    <path id="path4" d="M50.2,21.957h0c0-.022-.044-.044-.044-.044a2.5,2.5,0,0,1-1.684-1.639l-.044-.133a.022.022,0,0,0-.044,0l-.044.133a2.5,2.5,0,0,1-1.684,1.639.043.043,0,0,0-.044.044h0c0,.022.044.044.044.044a2.5,2.5,0,0,1,1.684,1.639l.044.133a.022.022,0,0,0,.044,0l.044-.133A2.5,2.5,0,0,1,50.153,22c0-.022.044-.022.044-.044h0" transform="translate(4.924 -20.118)" fill="#ec6608"/>
    <path id="path6" d="M5.287,46.483l2.437.022c.089,0,.089-.022.089-.089V44.577c0-.111-.022-.133-.111-.133H.191c-.111,0-.111.022-.111.133v1.839c0,.089,0,.089.089.089l2.5-.022v7.444c0,.133,0,.133.133.133H5.154c.111,0,.133-.022.133-.133Z" transform="translate(0.008 -17.548)" fill="#fff"/>
    <path id="path8" d="M12.327,50.881H10.355l.975-2.149Zm4.143,3.013c-1.551-3.146-3.5-7.09-4.852-9.748-.022-.022-.332-.044-.332,0-1.285,2.415-3.345,6.6-4.83,9.748q-.1.2.066.2H8.871c.177,0,.222-.044.266-.155.133-.332.332-.82.487-1.219h3.434c.133.354.354.886.532,1.263a.166.166,0,0,0,.177.111h2.659c.133,0,.133-.022.044-.2" transform="translate(0.678 -17.582)" fill="#fff"/>
    <path id="path10" d="M21.653,47.878c0,.82-.421,1.4-1.2,1.418l-1.418.044V46.549h1.4a1.171,1.171,0,0,1,1.219,1.329m3.39,5.8c-.82-1.329-1.639-2.769-1.994-3.345A2.68,2.68,0,0,0,24.378,47.7a3.138,3.138,0,0,0-3.345-3.257H16.6c-.044,0-.111-.022-.111.133v9.372c0,.133,0,.133.111.133h2.326c.089,0,.111-.022.111-.133V51.268l1.639-.022s1.041,1.639,1.529,2.548c.133.266.177.288.288.288H25c.177-.022.2-.111.044-.4" transform="translate(1.742 -17.548)" fill="#fff"/>
    <path id="path12" d="M30.57,47.878c0,.82-.421,1.4-1.2,1.418l-1.418.044V46.549h1.4a1.182,1.182,0,0,1,1.219,1.329m3.368,5.8c-.82-1.329-1.639-2.769-1.994-3.345A2.68,2.68,0,0,0,33.273,47.7a3.138,3.138,0,0,0-3.345-3.257H25.519c-.044,0-.111-.022-.111.133v9.372c0,.133,0,.133.111.133h2.326c.089,0,.111-.022.111-.133V51.268l1.639-.022s1.041,1.639,1.529,2.548c.133.266.177.288.288.288h2.5c.155-.022.2-.111.022-.4" transform="translate(2.684 -17.548)" fill="#fff"/>
    <path id="path14" d="M39.356,50.881H37.384l.975-2.149Zm4.165,3.013c-1.551-3.146-3.5-7.09-4.852-9.748-.022-.022-.332-.044-.332,0-1.285,2.415-3.345,6.6-4.83,9.748q-.1.2.066.2h2.348c.177,0,.222-.044.266-.155.133-.332.332-.82.487-1.219h3.434c.133.354.354.886.532,1.263a.166.166,0,0,0,.177.111h2.659c.111,0,.133-.022.044-.2" transform="translate(3.536 -17.582)" fill="#fff"/>
    <path id="path16" d="M49.706,50.093a1.979,1.979,0,0,1-2.038,1.795,2.3,2.3,0,0,1-2.371-2.57A2.337,2.337,0,0,1,47.712,46.7a2.021,2.021,0,0,1,1.905,1.108c.044.089.111.155.222.111l2.083-.8c.089-.022.089-.133.022-.266a4.357,4.357,0,0,0-4.254-2.614,4.865,4.865,0,0,0-5.029,5.029A4.715,4.715,0,0,0,47.624,54.3a3.406,3.406,0,0,0,2.592-.975l1.573.931a.315.315,0,0,0,.133.044c.133,0,.133-.066.133-.066V50.026c0-.066-.022-.089-.111-.089H49.817a.219.219,0,0,0-.111.155" transform="translate(4.507 -17.569)" fill="#fff"/>
    <path id="path18" d="M59.541,49.3a2.4,2.4,0,1,1-2.393-2.614A2.37,2.37,0,0,1,59.541,49.3m2.636,0a5.029,5.029,0,1,0-5.029,5.029A4.988,4.988,0,0,0,62.177,49.3" transform="translate(5.506 -17.569)" fill="#fff"/>
    <path id="path20" d="M70.759,44.492c-.022-.022-.044-.022-.111-.022H68.5c-.111,0-.111.022-.111.177V48.9s-3.478-3.212-5.517-4.675c-.044-.022-.111-.044-.133,0V54c.022.044.044.089.111.089H65c.133,0,.133,0,.133-.133V49.61s3.345,3.08,5.494,4.7c.066.044.111.066.133.044Z" transform="translate(6.628 -17.574)" fill="#fff"/>
    <path id="path22" d="M76.827,50.881H74.855l.975-2.149Zm4.165,3.013c-1.551-3.146-3.5-7.09-4.852-9.748-.022-.022-.332-.044-.332,0-1.285,2.415-3.345,6.6-4.83,9.748q-.1.2.066.2h2.348c.177,0,.222-.044.266-.155.133-.332.332-.82.487-1.219H77.58c.133.354.354.886.532,1.263a.166.166,0,0,0,.177.111h2.659c.111,0,.133-.022.044-.2" transform="translate(7.495 -17.582)" fill="#fff"/>
    <path id="path24" d="M17.062,39.094a2.609,2.609,0,0,1-2.5,1.507,2.958,2.958,0,0,1-2.991-3.257c0-1.927,1.152-3.345,2.947-3.345a2.672,2.672,0,0,1,2.614,1.639c.044.089.044.133.155.089l2.681-1.041c.066-.044.133-.111.044-.332a5.759,5.759,0,0,0-5.583-3.434,6.359,6.359,0,0,0,.089,12.717,5.993,5.993,0,0,0,5.605-3.722c.044-.111.022-.2-.155-.244l-2.681-.731c-.155-.022-.177.066-.222.155" transform="translate(0.862 -18.977)" fill="#fff"/>
    <path id="path26" d="M26.4,39.287H23.9l1.219-2.725ZM31.65,43.1c-1.972-3.966-4.409-8.951-6.137-12.3-.022-.044-.421-.044-.421,0-1.639,3.057-4.232,8.33-6.093,12.3-.066.177-.044.244.089.244h2.969c.244,0,.266-.044.332-.2.177-.421.421-1.041.62-1.551h4.342c.177.443.443,1.108.665,1.6.044.133.133.133.222.133h3.345c.155.022.177.022.066-.222" transform="translate(2.003 -18.993)" fill="#fff"/>
    <path id="path28" d="M31.263,40.89c.62,1.75,2.127,2.747,4.564,2.747,2.814,0,5.1-1.219,5.1-3.988,0-2.238-1.329-3.456-3.633-3.788-.244-.044-.421-.066-.6-.089-1.617-.266-2.282-.62-2.282-1.44,0-.665.4-1.13,1.662-1.13a2.282,2.282,0,0,1,2.016,1.418c.044.089.089.133.222.066l2.1-.842c.111-.044.177-.111.133-.31-.465-1.507-1.927-2.636-4.32-2.636-3.168,0-4.763,1.639-4.763,3.966,0,2.215,1.507,3.434,3.678,3.656a3.027,3.027,0,0,0,.421.044c1.639.2,2.171.665,2.171,1.4,0,.82-.576,1.2-1.817,1.2a2.334,2.334,0,0,1-2.171-1.462c-.044-.133-.044-.133-.2-.089l-2.215.886c-.111.111-.133.2-.066.4" transform="translate(3.299 -18.979)" fill="#fff"/>
    <path id="path30" d="M45.421,31.314c0-.133-.022-.155-.177-.155H42.275c-.155,0-.155-.022-.155.155V43.145c0,.177,0,.155.155.155h2.969c.155,0,.177-.022.177-.155V31.314Z" transform="translate(4.45 -18.952)" fill="#fff"/>
    <path id="path32" d="M58.082,31.679v-.288c0-.177,0-.222-.177-.222H55.18c-.133,0-.133.022-.133.222v5.384S50.66,32.7,48.09,30.882c-.089-.044-.177-.066-.2.089V43.2a.172.172,0,0,0,.177.155h2.7c.155,0,.155,0,.155-.155V37.705s4.232,3.9,6.935,5.915c.2.133.222.044.222-.177V31.679Z" transform="translate(5.06 -18.985)" fill="#fff"/>
    <path id="path34" d="M68.684,37.3a3.024,3.024,0,1,1-6.026,0,3.026,3.026,0,1,1,6.026,0m3.345,0a6.358,6.358,0,1,0-6.358,6.358A6.289,6.289,0,0,0,72.029,37.3" transform="translate(6.266 -18.975)" fill="#fff"/>
  </g>
</svg>
