<svg id="logo_melincue" xmlns="http://www.w3.org/2000/svg" xmlns:xlink="http://www.w3.org/1999/xlink" width="96.273" height="44.226" viewBox="0 0 96.273 44.226">
  <defs>
    <clipPath id="clip-path">
      <path id="use51" d="M44.239,39.405a8.843,8.843,0,1,1,8.855-8.855A8.842,8.842,0,0,1,44.239,39.405Z" transform="translate(-35.408 -21.719)"/>
    </clipPath>
    <linearGradient id="linear-gradient" x1="0.5" y1="1" x2="0.5" gradientUnits="objectBoundingBox">
      <stop offset="0" stop-color="#005187"/>
      <stop offset="0.74" stop-color="#93accd"/>
      <stop offset="1" stop-color="#005187"/>
    </linearGradient>
    <linearGradient id="linear-gradient-2" x1="-2.175" y1="0.502" x2="1.003" y2="0.502" gradientUnits="objectBoundingBox">
      <stop offset="0" stop-color="#fff"/>
      <stop offset="0.27" stop-color="#aec0da"/>
      <stop offset="0.562" stop-color="#799ac1"/>
      <stop offset="1" stop-color="#005187"/>
    </linearGradient>
    <linearGradient id="linear-gradient-3" x1="0.503" y1="0.001" x2="0.503" y2="2.17" gradientUnits="objectBoundingBox">
      <stop offset="0" stop-color="#fff"/>
      <stop offset="0.129" stop-color="#93accd"/>
      <stop offset="1" stop-color="#005187"/>
    </linearGradient>
    <linearGradient id="linear-gradient-4" x1="-0.728" y1="0.502" x2="1.832" y2="0.502" xlink:href="#linear-gradient-2"/>
    <linearGradient id="linear-gradient-5" x1="0.505" y1="0.005" x2="0.505" y2="1.872" xlink:href="#linear-gradient-3"/>
    <linearGradient id="linear-gradient-6" x1="0.012" y1="0.494" x2="3.785" y2="0.494" xlink:href="#linear-gradient-2"/>
    <linearGradient id="linear-gradient-7" x1="0.508" y1="-0.011" x2="0.508" y2="2.697" xlink:href="#linear-gradient-3"/>
  </defs>
  <g id="g18" transform="translate(0 23.292)">
    <path id="path2" d="M6.764,53.692H6.451L2.168,44.813v7.411c0,.89.289,1.035,1.251,1.035l.241.024v.457c-.6-.048-1.227-.072-1.829-.072S.6,53.692-.022,53.74v-.457l.241-.024c.938,0,1.227-.144,1.227-1.035V44.476c0-.89-.265-1.035-1.227-1.035l-.241-.024V42.96a14.625,14.625,0,0,0,1.468.072,14.625,14.625,0,0,0,1.468-.072L6.98,51.55l3.176-6.521A15.985,15.985,0,0,0,11,42.984a14.625,14.625,0,0,0,1.468.072c.481,0,.987-.024,1.468-.072v.457h-.241c-.914.024-1.2.144-1.2,1.035v7.411c0,1.2-.024,1.3,1.468,1.372v.457c-.746-.048-1.468-.072-2.214-.072s-1.492.024-2.166.072v-.457c1.468-.072,1.468-.192,1.468-1.372V44.813Z" transform="translate(0.022 -42.623)" fill="#fff"/>
    <path id="path4" d="M18.429,51.62a10.415,10.415,0,0,0,.072,1.323,18.713,18.713,0,0,0,2.093.072,8.609,8.609,0,0,0,2.478-.265,6.405,6.405,0,0,0,.193-.794l.144-.842h.505a5.59,5.59,0,0,0-.144,1.251v1.275c-.577.072-1.612.072-2.551.072-.914-.048-1.829-.072-2.767-.072s-1.853.024-2.791.072v-.457a1.207,1.207,0,0,0,1.323-1.372V44.811c0-1.2.024-1.3-1.468-1.372v-.457c.938.048,1.853.072,2.815.072s1.9-.024,2.815-.072c.962.024,2.021,0,2.551.072a4.608,4.608,0,0,0-.241,1.492c0,.313-.048.577-.048.914h-.481a6.963,6.963,0,0,0-.217-1.516,7.346,7.346,0,0,0-2.286-.265,15.309,15.309,0,0,0-1.9.072,6.748,6.748,0,0,0-.072,1.275v2.887c3.345.024,3.561.217,3.585-1.3h.505v3.561h-.505c0-1.732-.1-1.636-3.585-1.516v2.96Z" transform="translate(1.663 -42.621)" fill="#fff"/>
    <path id="path6" d="M28.7,52.371l.048.577a21,21,0,0,0,2.166.072,8.519,8.519,0,0,0,2.478-.265,2.531,2.531,0,0,0,.144-.505l.361-1.3.505.024c-.048.217-.1.626-.144,1.035l-.168,1.612a21.811,21.811,0,0,1-2.382.072c-.866-.048-1.732-.072-2.623-.072s-1.757.024-2.647.072v-.457c.722-.12.818-.577.818-1.8V44.767c0-1.2.024-1.3-1.468-1.372v-.457q1.047.072,2.166.072c.746,0,1.468-.024,2.214-.072V43.4c-1.468.072-1.468.193-1.468,1.372Z" transform="translate(2.749 -42.626)" fill="#fff"/>
    <path id="path8" d="M38.625,51.885c0,1.2-.024,1.3,1.468,1.372v.457c-.746-.048-1.468-.072-2.214-.072s-1.468.024-2.166.072v-.457c1.468-.072,1.468-.192,1.468-1.372V44.811c0-1.2.024-1.3-1.468-1.372v-.457q1.047.072,2.166.072c.746,0,1.468-.024,2.214-.072v.457c-1.492.072-1.468.192-1.468,1.372Z" transform="translate(3.797 -42.621)" fill="#fff"/>
    <path id="path10" d="M52.583,52.128V44.476c0-.89-.289-1.035-1.227-1.035l-.241-.024V42.96c.626.048,1.227.072,1.853.072s1.227-.024,1.829-.072v.457l-.241.024c-.962,0-1.251.144-1.251,1.035v8.662l.048.553-1.66-.337-6.978-8.662V52.2c0,.89.289,1.035,1.251,1.035l.241.024v.457c-.6-.048-1.227-.072-1.829-.072s-1.227.024-1.853.072v-.457l.241-.024c.938,0,1.227-.144,1.227-1.035V44.452c0-.89-.241-1.035-1.107-1.035h-.217V42.96a11.992,11.992,0,0,0,1.347.072,12.2,12.2,0,0,0,1.323-.072Z" transform="translate(4.517 -42.623)" fill="#fff"/>
    <path id="path12" d="M64.694,52.978a8.106,8.106,0,0,1-3.489.914c-3.393,0-6.232-2-6.232-5.655,0-3.561,2.887-5.582,5.919-5.582a14.066,14.066,0,0,1,3.994.7c-.144.77-.241,1.54-.337,2.31h-.457c-.048-.987.192-1.347-.7-1.781a5.224,5.224,0,0,0-2.478-.577c-2.551,0-4.307,1.8-4.307,4.6a4.863,4.863,0,0,0,5.1,5.2,5.772,5.772,0,0,0,3.128-.962l.144.144Z" transform="translate(5.832 -42.655)" fill="#fff"/>
    <path id="path14" d="M69.352,50.092c-.1,2.19,1.131,2.815,3.152,2.815a3.123,3.123,0,0,0,2.623-1.059,4.555,4.555,0,0,0,.626-2.575V44.389c0-.89-.289-1.035-1.2-1.035l-.241-.024v-.457c.626.048,1.227.072,1.853.072s1.227-.024,1.829-.072v.457l-.241.024c-.962,0-1.275.144-1.275,1.035v5.679a3.942,3.942,0,0,1-.674,2.238,3.788,3.788,0,0,1-1.588,1.227,7.565,7.565,0,0,1-2.069.313c-1.4,0-3.08-.217-3.826-1.588a3.676,3.676,0,0,1-.385-2.021V44.7c0-1.2.024-1.3-1.468-1.4v-.433q1.047.072,2.166.072c.746,0,1.468-.024,2.214-.072v.457c-1.492.072-1.468.192-1.468,1.4v5.366Z" transform="translate(7.046 -42.632)" fill="#fff"/>
    <path id="path16" d="M82.368,51.62a10.416,10.416,0,0,0,.072,1.323,18.713,18.713,0,0,0,2.093.072,8.519,8.519,0,0,0,2.478-.265,6.4,6.4,0,0,0,.193-.794l.144-.842h.505a5.59,5.59,0,0,0-.144,1.251v1.275c-.577.072-1.612.072-2.551.072-.914-.048-1.829-.072-2.767-.072s-1.853.024-2.791.072v-.457a1.207,1.207,0,0,0,1.323-1.372V44.811c0-1.2.024-1.3-1.468-1.372v-.457c.938.048,1.853.072,2.815.072s1.9-.024,2.815-.072c.962.024,2.021,0,2.551.072a4.608,4.608,0,0,0-.241,1.492c0,.313-.048.577-.048.914h-.481a6.964,6.964,0,0,0-.217-1.516,7.346,7.346,0,0,0-2.286-.265,15.309,15.309,0,0,0-1.9.072,6.749,6.749,0,0,0-.072,1.275v2.887c3.345.024,3.561.217,3.585-1.3h.505v3.561h-.505c0-1.732-.1-1.636-3.585-1.516v2.96Z" transform="translate(8.419 -42.621)" fill="#fff"/>
  </g>
  <g id="g46" transform="translate(0.217 39.269)">
    <path id="path20" d="M4.6,61.361l-.12.313a3.346,3.346,0,0,1-.77.289,4.237,4.237,0,0,1-.818.1,4.217,4.217,0,0,1-.962-.12,3.257,3.257,0,0,1-.77-.361,2.416,2.416,0,0,1-.553-.553,2.033,2.033,0,0,1-.313-.65,2.582,2.582,0,0,1-.12-.77A2.276,2.276,0,0,1,.92,57.847a2.9,2.9,0,0,1,2.021-.7,4.079,4.079,0,0,1,.553.024,4.447,4.447,0,0,1,.626.144c.241.072.409.1.457.12a2.118,2.118,0,0,0-.12.361q-.036.289-.072.65H4.168v-.385a.575.575,0,0,0-.361-.481,2.468,2.468,0,0,0-.962-.168,2.507,2.507,0,0,0-.794.12,1.463,1.463,0,0,0-.577.361,1.882,1.882,0,0,0-.409.626,2.3,2.3,0,0,0-.168.962,2.232,2.232,0,0,0,.626,1.636,2.216,2.216,0,0,0,1.636.6A3.094,3.094,0,0,0,4,61.6a2.719,2.719,0,0,0,.529-.265Z" transform="translate(-0.174 -57.102)" fill="#fff"/>
    <path id="path22" d="M6.681,61.938V61.7a1.094,1.094,0,0,0,.337-.024.132.132,0,0,0,.12-.072c.048-.024.1-.12.168-.265q.072-.108.433-.938l.842-1.877q.144-.325.577-1.372h.217l1.42,3.345c.241.529.385.89.457,1.011a.409.409,0,0,0,.144.144,1.093,1.093,0,0,0,.337.024v.241c-.337-.024-.577-.048-.722-.048l-1.083.048v-.241a1.853,1.853,0,0,0,.457-.024.184.184,0,0,0,.12-.048.088.088,0,0,0,.024-.072.744.744,0,0,0-.048-.192l-.409-1.011H8.149l-.361.866a.805.805,0,0,0-.1.337.088.088,0,0,0,.024.072.184.184,0,0,0,.12.048,1.963,1.963,0,0,0,.433.024v.241c-.361-.024-.65-.024-.842-.024-.265.024-.505.048-.746.048Zm1.54-1.853H9.906l-.818-2Z" transform="translate(0.513 -57.102)" fill="#fff"/>
    <path id="path24" d="M13.757,61.774a9.492,9.492,0,0,0,.048-1.035h.217a2.315,2.315,0,0,0,.048.577.707.707,0,0,0,.192.193,1.427,1.427,0,0,0,.385.168,1.667,1.667,0,0,0,.481.072,1.4,1.4,0,0,0,.626-.144.844.844,0,0,0,.409-.409,1.03,1.03,0,0,0,.144-.529,1,1,0,0,0-.072-.385,1.068,1.068,0,0,0-.193-.265.719.719,0,0,0-.337-.144,2.956,2.956,0,0,0-.481-.072c-.241-.024-.457-.072-.626-.1a1.23,1.23,0,0,1-.505-.241,1.2,1.2,0,0,1-.265-.385,1.116,1.116,0,0,1-.1-.505,1.41,1.41,0,0,1,.217-.746,1.292,1.292,0,0,1,.6-.529,2.076,2.076,0,0,1,.866-.192,3.122,3.122,0,0,1,.626.072,2.748,2.748,0,0,1,.626.217c-.024.144-.048.265-.072.385a3.089,3.089,0,0,0-.024.529h-.217c0-.337-.024-.529-.024-.553a2.17,2.17,0,0,0-.241-.217,1.542,1.542,0,0,0-.722-.192.994.994,0,0,0-1.059,1.059.723.723,0,0,0,.1.433.683.683,0,0,0,.361.241,4.3,4.3,0,0,0,.6.12c.265.048.529.072.746.12a1.623,1.623,0,0,1,.457.217.863.863,0,0,1,.241.337,1.013,1.013,0,0,1,.1.481,1.556,1.556,0,0,1-.553,1.155,2.01,2.01,0,0,1-1.42.505,2.127,2.127,0,0,1-1.179-.241Z" transform="translate(1.258 -57.106)" fill="#fff"/>
    <path id="path26" d="M21.144,61.712v.217c-.481-.024-.77-.024-.938-.024l-1.011.024v-.217c.265,0,.409-.024.481-.024a.526.526,0,0,0,.12-.072.744.744,0,0,0,.048-.313c0-.048,0-.361.024-.938v-1.54c0-.289,0-.6-.024-.89a.775.775,0,0,0-.048-.361.24.24,0,0,0-.12-.1,1.98,1.98,0,0,0-.481-.024v-.217c.433,0,.746.024.987.024.217,0,.553,0,.987-.024v.217c-.265,0-.433.024-.481.024a.527.527,0,0,0-.12.072.744.744,0,0,0-.048.313c0,.048,0,.361-.024.938v2.406a1.018,1.018,0,0,0,.048.385.24.24,0,0,0,.12.1,1.98,1.98,0,0,0,.481.024Z" transform="translate(1.835 -57.092)" fill="#fff"/>
    <path id="path28" d="M23.506,61.933v-.217a1.581,1.581,0,0,0,.457-.048q.036,0,.072-.072a.893.893,0,0,0,.048-.337c0-.289.024-.553.024-.77V57.795c0-.072,0-.12-.024-.144a.321.321,0,0,0-.12-.144.208.208,0,0,0-.144-.072,2.288,2.288,0,0,1-.337-.024v-.217h1.227a6.05,6.05,0,0,1,.409.553l.674.842.987,1.2c.313.385.577.7.77.914a2.214,2.214,0,0,0,.313.337v-2.43c0-.217,0-.481-.024-.746a.8.8,0,0,0-.048-.337l-.072-.072a1.581,1.581,0,0,0-.457-.048v-.217h1.492v.217a1.581,1.581,0,0,0-.457.048c-.024.024-.048.024-.072.072a.8.8,0,0,0-.048.337c-.024.289-.024.553-.024.746V60.2c0,.313,0,.938.024,1.8l-.337-.1-.072-.024c-.024,0-.024-.024-.048-.024a1.126,1.126,0,0,1-.12-.144c-.192-.217-.313-.361-.409-.481l-.433-.553L24.4,57.843v2.575c0,.217,0,.481.024.77a.717.717,0,0,0,.048.337l.072.072a1.717,1.717,0,0,0,.457.048v.217a5.443,5.443,0,0,0-.65-.024,3.114,3.114,0,0,1-.842.1Z" transform="translate(2.288 -57.097)" fill="#fff"/>
    <path id="path30" d="M30.816,59.606a2.451,2.451,0,0,1,.168-.962,1.925,1.925,0,0,1,.529-.794,2.512,2.512,0,0,1,.818-.529,2.961,2.961,0,0,1,1.059-.192,3.149,3.149,0,0,1,.987.144,2.218,2.218,0,0,1,.746.409,2.431,2.431,0,0,1,.457.553,2.708,2.708,0,0,1,.192.529,2.829,2.829,0,0,1,.072.65,2.675,2.675,0,0,1-3.609,2.454,2.145,2.145,0,0,1-.77-.505,2.109,2.109,0,0,1-.481-.818,2.58,2.58,0,0,1-.168-.938Zm.7-.265a3.158,3.158,0,0,0,.072.65,2.525,2.525,0,0,0,.168.553,2.106,2.106,0,0,0,.409.674,1.941,1.941,0,0,0,.577.409,2.235,2.235,0,0,0,.7.12,1.717,1.717,0,0,0,.938-.265,1.626,1.626,0,0,0,.6-.722,3,3,0,0,0,.192-1.083,3.259,3.259,0,0,0-.144-.987,1.638,1.638,0,0,0-.241-.505,1.759,1.759,0,0,0-.337-.385,2.49,2.49,0,0,0-.505-.265,2.088,2.088,0,0,0-.674-.12,1.7,1.7,0,0,0-.938.241,1.633,1.633,0,0,0-.6.674,2.233,2.233,0,0,0-.217,1.011Z" transform="translate(3.063 -57.104)" fill="#fff"/>
    <path id="path32" d="M46.578,61.57q-.253.18-.289.217c-.048.048-.144.12-.289.241a.819.819,0,0,1-.241.024,1.116,1.116,0,0,1-.505-.1,2.872,2.872,0,0,1-.722-.433,2.894,2.894,0,0,1-.722.409,1.844,1.844,0,0,1-.65.1,1.587,1.587,0,0,1-.77-.193,1.218,1.218,0,0,1-.481-.505,1.628,1.628,0,0,1-.168-.65,1.384,1.384,0,0,1,.265-.818,2.045,2.045,0,0,1,.77-.626,2.586,2.586,0,0,1-.192-.89,1.09,1.09,0,0,1,.072-.385.337.337,0,0,1,.1-.168c.024-.024.144-.144.337-.313a1.173,1.173,0,0,1,.289-.192.666.666,0,0,1,.313-.072.6.6,0,0,1,.457.168.706.706,0,0,1,.168.457,1.3,1.3,0,0,1-.217.674,2.642,2.642,0,0,1-.746.7,5.211,5.211,0,0,0,.65.962,4.6,4.6,0,0,0,.746.77,1.166,1.166,0,0,0,.337-.818.844.844,0,0,0-.072-.385.162.162,0,0,0-.144-.1,2.244,2.244,0,0,0-.529-.024l-.024-.048.217-.313a3.735,3.735,0,0,0,.553.024c.144,0,.409,0,.818-.024h.6a1.635,1.635,0,0,0-.072.457,6.244,6.244,0,0,0-.962-.072,1.093,1.093,0,0,1-.1.866,2.262,2.262,0,0,1-.433.577,2.051,2.051,0,0,0,1.2.433c.072,0,.12,0,.144-.024a2.116,2.116,0,0,0,.241-.12Zm-2.262-.217c-.289-.313-.505-.553-.6-.674-.144-.168-.289-.361-.409-.529s-.241-.385-.385-.626a1.838,1.838,0,0,0-.433.433.911.911,0,0,0-.12.529,1.281,1.281,0,0,0,.144.577,1.019,1.019,0,0,0,.409.433,1.118,1.118,0,0,0,.553.144,1.425,1.425,0,0,0,.842-.289Zm-1.059-2.382a1.53,1.53,0,0,0,.481-.481.834.834,0,0,0,.168-.481.457.457,0,0,0-.12-.313.334.334,0,0,0-.241-.12.855.855,0,0,0-.241.048.446.446,0,0,0-.168.192.665.665,0,0,0-.048.337A2.463,2.463,0,0,0,43.257,58.971Z" transform="translate(4.217 -57.095)" fill="#fff"/>
    <path id="path34" d="M52.405,57.431v-.217h.409l.65.024h.577c.337-.024.553-.024.6-.024a2.186,2.186,0,0,1,.914.12.963.963,0,0,1,.457.361,1.144,1.144,0,0,1,.168.553,1.187,1.187,0,0,1-.144.553,1.3,1.3,0,0,1-.433.457,2.413,2.413,0,0,1-.746.289c.048.072.193.241.385.529l.842,1.107c.241.313.385.481.409.505a.088.088,0,0,0,.072.024,1.33,1.33,0,0,0,.217.024v.217a2.92,2.92,0,0,0-.433-.024,3.743,3.743,0,0,0-.481.024c-.144-.168-.385-.505-.722-.987-.193-.265-.361-.505-.505-.674-.241-.289-.457-.553-.674-.818l.024-.1h.265a1.3,1.3,0,0,0,.914-.289.931.931,0,0,0,.313-.746.889.889,0,0,0-.265-.65,1.187,1.187,0,0,0-.818-.241,3.033,3.033,0,0,0-.674.1c0,.12-.024.217-.024.337,0,.024,0,.361-.024.962v1.468c0,.313,0,.6.024.866a1.018,1.018,0,0,0,.048.385.24.24,0,0,0,.12.1,1.98,1.98,0,0,0,.481.024v.217c-.313-.024-.6-.024-.866-.024-.217,0-.577,0-1.083.024V61.69c.265,0,.409-.024.481-.024a.527.527,0,0,0,.12-.072.743.743,0,0,0,.048-.313c0-.048,0-.361.024-.938V58.8c0-.289,0-.6-.024-.89a.775.775,0,0,0-.048-.361.24.24,0,0,0-.12-.1,2.1,2.1,0,0,0-.481-.024Z" transform="translate(5.344 -57.095)" fill="#fff"/>
    <path id="path36" d="M58.811,61.931v-.217a1.581,1.581,0,0,0,.457-.048q.036,0,.072-.072a.892.892,0,0,0,.048-.337c.024-.289.024-.553.024-.77V58.8c0-.313,0-.6-.024-.89a.775.775,0,0,0-.048-.361.24.24,0,0,0-.12-.1,1.98,1.98,0,0,0-.481-.024v-.217l.938.024,1.011-.024h1.059a5.232,5.232,0,0,1,.626.024c-.024.12-.048.241-.072.337,0,.024-.024.265-.072.7h-.217a2.642,2.642,0,0,0-.048-.626,1.134,1.134,0,0,0-.409-.1c-.241-.024-.505-.048-.746-.048h-.361c-.192,0-.313.024-.409.024,0,.241-.024.481-.024.7v1.131c.265,0,.505.024.722.024a5.192,5.192,0,0,0,.674-.048.2.2,0,0,0,.144-.048.49.49,0,0,0,.048-.265l.024-.241h.192v.072l-.024.7.024.77h-.241V60.1a.743.743,0,0,0-.048-.313.145.145,0,0,0-.144-.072,4.23,4.23,0,0,0-.746-.048c-.144,0-.361,0-.626.024-.024.217-.024.553-.024.987,0,.409,0,.722.024.938.313.024.674.048,1.083.048a3.76,3.76,0,0,0,.6-.024,1.38,1.38,0,0,0,.337-.1,2.5,2.5,0,0,0,.072-.289c.048-.192.072-.337.1-.433h.217c-.048.457-.1.818-.1,1.107a5.276,5.276,0,0,1-.7.048l-2-.024c.024-.048-.265-.024-.818-.024Z" transform="translate(6.013 -57.095)" fill="#fff"/>
    <path id="path38" d="M64.747,61.774a8.156,8.156,0,0,0,.072-1.035h.217a5.067,5.067,0,0,0,.048.577.707.707,0,0,0,.192.193,1.153,1.153,0,0,0,.385.168,1.667,1.667,0,0,0,.481.072,1.4,1.4,0,0,0,.626-.144.844.844,0,0,0,.409-.409,1.009,1.009,0,0,0,.12-.529,1,1,0,0,0-.072-.385,1.069,1.069,0,0,0-.192-.265.719.719,0,0,0-.337-.144,2.956,2.956,0,0,0-.481-.072c-.241-.024-.457-.072-.626-.1a1.23,1.23,0,0,1-.505-.241,1.2,1.2,0,0,1-.265-.385,1.116,1.116,0,0,1-.1-.505,1.41,1.41,0,0,1,.217-.746,1.292,1.292,0,0,1,.6-.529,2.076,2.076,0,0,1,.866-.192,2.94,2.94,0,0,1,.626.072,2.749,2.749,0,0,1,.626.217c-.024.144-.048.265-.072.385a3.088,3.088,0,0,0-.024.529h-.217c0-.337-.024-.529-.024-.553a1.839,1.839,0,0,0-.217-.217,1.621,1.621,0,0,0-.722-.192,1.016,1.016,0,0,0-.77.289,1.053,1.053,0,0,0-.289.77.724.724,0,0,0,.1.433.683.683,0,0,0,.361.241,3.648,3.648,0,0,0,.6.12c.289.048.529.072.746.12a1.624,1.624,0,0,1,.457.217.863.863,0,0,1,.241.337,1.014,1.014,0,0,1,.1.481,1.556,1.556,0,0,1-.553,1.155,2.01,2.01,0,0,1-1.42.505,2.211,2.211,0,0,1-1.2-.241Z" transform="translate(6.645 -57.106)" fill="#fff"/>
    <path id="path40" d="M70.186,59.606a3,3,0,0,1,.144-.962,1.925,1.925,0,0,1,.529-.794,2.378,2.378,0,0,1,.842-.529,2.865,2.865,0,0,1,1.059-.192,3.149,3.149,0,0,1,.987.144,2.007,2.007,0,0,1,.746.409,2.431,2.431,0,0,1,.457.553,2.709,2.709,0,0,1,.193.529,2.83,2.83,0,0,1,.072.65,2.552,2.552,0,0,1-2.647,2.623,2.745,2.745,0,0,1-.987-.168,2.377,2.377,0,0,1-.77-.505,2.109,2.109,0,0,1-.481-.818,3.176,3.176,0,0,1-.144-.938Zm.674-.265a3.159,3.159,0,0,0,.072.65,2.525,2.525,0,0,0,.168.553,2.106,2.106,0,0,0,.409.674,1.941,1.941,0,0,0,.577.409,2.235,2.235,0,0,0,.7.12,1.717,1.717,0,0,0,.938-.265,1.626,1.626,0,0,0,.6-.722,3,3,0,0,0,.192-1.083,3.26,3.26,0,0,0-.144-.987,1.6,1.6,0,0,0-.217-.505,1.76,1.76,0,0,0-.337-.385,2.49,2.49,0,0,0-.505-.265,2.088,2.088,0,0,0-.674-.12,1.6,1.6,0,0,0-1.516.914A1.765,1.765,0,0,0,70.859,59.342Z" transform="translate(7.223 -57.104)" fill="#fff"/>
    <path id="path42" d="M77.239,57.431v-.217h.385l.626.024h.577c.337-.024.553-.024.6-.024a2.186,2.186,0,0,1,.914.12.963.963,0,0,1,.457.361,1.144,1.144,0,0,1,.168.553,1.187,1.187,0,0,1-.144.553,1.3,1.3,0,0,1-.433.457,2.413,2.413,0,0,1-.746.289c.048.072.193.241.385.529l.842,1.107c.241.313.385.481.409.505a.088.088,0,0,0,.072.024,1.33,1.33,0,0,0,.217.024v.217a2.92,2.92,0,0,0-.433-.024,3.743,3.743,0,0,0-.481.024c-.144-.168-.385-.505-.722-.987-.192-.265-.361-.505-.505-.674-.241-.289-.457-.553-.674-.818l.024-.1h.265a1.263,1.263,0,0,0,.914-.289.931.931,0,0,0,.313-.746.889.889,0,0,0-.265-.65,1.187,1.187,0,0,0-.818-.241,3.033,3.033,0,0,0-.674.1c0,.12-.024.217-.024.337,0,.024,0,.361-.024.962v1.468c0,.313,0,.6.024.866a1.018,1.018,0,0,0,.048.385.24.24,0,0,0,.12.1,1.98,1.98,0,0,0,.481.024v.217c-.313-.024-.6-.024-.866-.024-.217,0-.577,0-1.059.024V61.69c.265,0,.409-.024.481-.024a.527.527,0,0,0,.12-.072.743.743,0,0,0,.048-.313c0-.048,0-.361.024-.938V58.8c0-.289,0-.6-.024-.89a.775.775,0,0,0-.048-.361.24.24,0,0,0-.12-.1,1.736,1.736,0,0,0-.457-.024Z" transform="translate(7.965 -57.095)" fill="#fff"/>
    <path id="path44" d="M83.573,58.322h-.217a10.4,10.4,0,0,0-.048-1.107c.241,0,.626.024,1.155.048.433,0,.7.024.842.024s.505,0,1.059-.024c.409,0,.7-.024.866-.024-.024.241-.048.626-.048,1.107h-.217l-.024-.313a1.407,1.407,0,0,0-.048-.337.085.085,0,0,0-.072-.072,2.73,2.73,0,0,0-.337-.024c-.192,0-.337-.024-.457-.024h-.409c-.024.217-.024.505-.024.866v2.815a1.018,1.018,0,0,0,.048.385.24.24,0,0,0,.12.1,1.98,1.98,0,0,0,.481.024v.217c-.385-.024-.7-.024-.89-.024-.1,0-.433,0-1.035.024v-.217c.265,0,.433-.024.481-.024a.526.526,0,0,0,.12-.072.743.743,0,0,0,.048-.313V58.177l-.024-.553H84.44a5.257,5.257,0,0,0-.674.024c-.048,0-.1.024-.1.048a1.468,1.468,0,0,0-.072.361Z" transform="translate(8.609 -57.095)" fill="#fff"/>
  </g>
  <g id="g151" transform="translate(39.053 0)">
    <g id="g71" transform="translate(0.12 0.144)">
      <g id="Grupo_79" data-name="Grupo 79" clip-path="url(#clip-path)">
        <rect id="rect61" width="20.838" height="21.608" transform="translate(-1.588 -1.708)" fill="url(#linear-gradient)"/>
      </g>
      <g id="g65" opacity="0.15" clip-path="url(#clip-path)">
        <rect id="image63" width="37.075" height="24.081" transform="translate(-9.813 4.168)" fill="none"/>
      </g>
      <g id="g69" opacity="0.1" clip-path="url(#clip-path)">
        <rect id="image67" width="35.805" height="24.081" transform="translate(-7.618 4.168)" fill="none"/>
      </g>
    </g>
    <path id="path73" d="M42.351,36.4a7.345,7.345,0,0,0,1.444.144,7.224,7.224,0,0,0,1.035-.072l-1.275-2.045Z" transform="translate(-34.555 -20.232)" fill="none"/>
    <path id="path84" d="M48.385,33.649v-.265c-.553.024-1.083.048-1.636.048s-1.107-.024-1.612-.048v.265c1.083.048,1.083.1,1.083.794v1.781a7.534,7.534,0,0,0,1.083-.529V34.443C47.3,33.769,47.3,33.7,48.385,33.649Z" transform="translate(-34.26 -20.343)" opacity="0.2" fill="url(#linear-gradient-2)"/>
    <path id="path93" d="M48.385,33.649v-.265c-.553.024-1.083.048-1.636.048s-1.107-.024-1.612-.048v.265c1.083.048,1.083.1,1.083.794v1.781a7.534,7.534,0,0,0,1.083-.529V34.443C47.3,33.769,47.3,33.7,48.385,33.649Z" transform="translate(-34.26 -20.343)" opacity="0.4" fill="url(#linear-gradient-3)"/>
    <path id="path104" d="M43.229,33.363l-1.9,3.008a9.082,9.082,0,0,0,1.035.241l1.227-2,1.3,2.045a4.08,4.08,0,0,0,.529-.1l-1.973-3.2Z" transform="translate(-34.663 -20.345)" opacity="0.2" fill="url(#linear-gradient-4)"/>
    <path id="path113" d="M43.229,33.387l-1.9,2.984a4.979,4.979,0,0,0,1.035.241l1.251-2,1.275,2.045a4.082,4.082,0,0,0,.529-.1l-1.973-3.2h-.217Z" transform="translate(-34.663 -20.345)" opacity="0.4" fill="url(#linear-gradient-5)"/>
    <path id="path115" d="M43.741,34.11h-.217l-3.152-6.5v5.414c0,.65.217.746.914.746h.168v.337c-.433-.024-.89-.048-1.347-.048s-.89.024-1.347.048v-.337h.168c.7,0,.89-.1.89-.746V27.372c0-.65-.193-.746-.89-.746H38.76V26.29c.361.024.722.048,1.083.048s.722-.024,1.059-.048l2.984,6.28,2.31-4.764a12.1,12.1,0,0,0,.6-1.492c.361.024.722.048,1.059.048.361,0,.722-.024,1.083-.048v.337H48.77c-.674,0-.866.12-.866.77v5.414c0,.89,0,.962,1.083,1.011v.337c-.529-.024-1.083-.048-1.612-.048-.553,0-1.083.024-1.588.048v-.337c1.083-.048,1.059-.144,1.059-1.011V27.661Z" transform="translate(-34.934 -21.092)" fill="#fff"/>
    <path id="path117" d="M51.589,30.441a7.459,7.459,0,1,1-7.459-7.459A7.466,7.466,0,0,1,51.589,30.441Z" transform="translate(-35.155 -21.442)" fill="none"/>
    <g id="g123" transform="translate(7.267 3.513)">
      <path id="polygon119" d="M44.67,26.9l.048-.241H42.264l.024.241Z" transform="translate(-41.831 -24.566)" fill="#ffd300"/>
      <path id="path121" d="M45.1,25.2a.114.114,0,0,0-.12.12.088.088,0,0,0,.024.072l-.385.265-.1-.313c.048-.024.072-.048.072-.1a.129.129,0,0,0-.12-.12.11.11,0,0,0-.1.12.125.125,0,0,0,.048.1l-.361.265-.481-.626c.048-.024.072-.048.072-.1a.129.129,0,0,0-.12-.12.114.114,0,0,0-.12.12c0,.048.024.1.072.1L43,25.608l-.361-.265a.125.125,0,0,0,.048-.1.129.129,0,0,0-.12-.12.11.11,0,0,0-.1.12c0,.048.024.072.072.1l-.1.313-.385-.265a.088.088,0,0,0,.024-.072.11.11,0,0,0-.1-.12.12.12,0,0,0,0,.241h0l.241,1.347h2.478L45,25.44h.024c.072,0,.1-.048.1-.12.072-.072.024-.12-.024-.12Z" transform="translate(-41.872 -24.766)" fill="#ffd300"/>
    </g>
    <path id="path125" d="M44.275,39.539a8.975,8.975,0,1,1,8.975-8.975A8.975,8.975,0,0,1,44.275,39.539Zm7.387-8.975a7.411,7.411,0,1,0-7.411,7.387A7.414,7.414,0,0,0,51.662,30.564Z" transform="translate(-35.3 -21.589)" fill="#005187"/>
    <path id="path127" d="M37.1,28.709l-1.564-.217a8.818,8.818,0,0,0-.241,1.8h1.564a6.839,6.839,0,0,1,.241-1.588Zm5.342-5.318a7.016,7.016,0,0,1,1.588-.217V21.611a8.818,8.818,0,0,0-1.8.241Zm3.97-1.516a7.617,7.617,0,0,0-1.829-.241V23.2a7.478,7.478,0,0,1,1.66.265ZM35.3,30.851a9.054,9.054,0,0,0,.241,1.829l1.588-.144a7.693,7.693,0,0,1-.265-1.684Zm9.288,7.243v1.444a7.626,7.626,0,0,0,1.829-.265l-.168-1.444a7.477,7.477,0,0,1-1.66.265Zm8.638-7.8a8.818,8.818,0,0,0-.241-1.8l-1.564.217a7.046,7.046,0,0,1,.241,1.612h1.564ZM51.4,32.535l1.588.144a9.053,9.053,0,0,0,.241-1.829H51.662A7.694,7.694,0,0,1,51.4,32.535ZM42.23,39.3a9.054,9.054,0,0,0,1.829.241V38.093a8.964,8.964,0,0,1-1.612-.217Z" transform="translate(-35.3 -21.587)" fill="#93accd"/>
    <path id="path138" d="M40.372,34.27V34.1a.371.371,0,0,1,.241-.337,2.264,2.264,0,0,1,.674-.072h.168v-.265c-.433.024-.89.048-1.347.048s-.89-.024-1.347-.048v.265h.168a2.083,2.083,0,0,1,.65.072c.168.072.241.217.241.505v1.251c.168.12.337.217.529.337V34.27Z" transform="translate(-34.934 -20.338)" opacity="0.2" fill="url(#linear-gradient-6)"/>
    <path id="path147" d="M40.372,34.27V34.1a.371.371,0,0,1,.241-.337,1.67,1.67,0,0,1,.674-.072h.168v-.265c-.433.024-.89.048-1.347.048s-.89-.024-1.347-.048v.265h.168a2.19,2.19,0,0,1,.65.072c.168.072.241.217.241.505v1.251a5.757,5.757,0,0,0,.505.313V34.27Z" transform="translate(-34.934 -20.338)" opacity="0.4" fill="url(#linear-gradient-7)"/>
    <path id="path149" d="M44.122,38.037a7.6,7.6,0,1,1,7.6-7.6A7.589,7.589,0,0,1,44.122,38.037Zm7.387-7.58a7.387,7.387,0,1,0-7.387,7.363A7.368,7.368,0,0,0,51.509,30.457Z" transform="translate(-35.171 -21.458)" fill="#93accd"/>
  </g>
</svg>
