<svg xmlns="http://www.w3.org/2000/svg" width="74.187" height="51.064" viewBox="0 0 74.187 51.064">
  <g id="g58" transform="translate(-0.177)">
    <g id="g22" transform="translate(16.697 0)">
      <g id="g18" transform="translate(0 44.981)">
        <g id="g16">
          <path id="path2" d="M18.085,65.819c-.112-.056-.112-.074-.112-.3,0-.372.037-.688.037-.818,0-.074.019-.13.056-.13s.074.019.074.093a.878.878,0,0,0,.037.279,1.184,1.184,0,0,0,1.265.763c.781,0,1.191-.446,1.191-1.023,0-.558-.3-.819-1-1.339l-.353-.279c-.856-.651-1.135-1.116-1.135-1.656,0-.912.707-1.451,1.767-1.451a3.2,3.2,0,0,1,.819.093,1.008,1.008,0,0,0,.279.037c.056,0,.074,0,.074.056,0,.037-.037.3-.037.819q0,.167-.056.167c-.056,0-.056-.037-.074-.093a1.235,1.235,0,0,0-.112-.372c-.056-.093-.316-.372-1.023-.372-.577,0-1.06.3-1.06.837,0,.484.242.763,1.042,1.3l.223.149c.967.67,1.3,1.191,1.3,1.86a1.508,1.508,0,0,1-.744,1.321,2.393,2.393,0,0,1-1.265.279A3.562,3.562,0,0,1,18.085,65.819Z" transform="translate(-17.974 -59.959)" fill="#fff"/>
          <path id="path4" d="M25.616,60.257c.093-.26.13-.3.186-.3.074,0,.112.112.186.279.149.335,1.414,3.5,1.916,4.669.3.688.5.781.67.837a1.033,1.033,0,0,0,.316.037c.037,0,.093.019.093.056s-.093.056-.186.056c-.112,0-.707,0-1.265-.019-.149,0-.279,0-.279-.056,0-.037.019-.037.056-.056a.144.144,0,0,0,.074-.2l-.707-1.767c-.019-.037-.037-.037-.074-.037H24.76c-.037,0-.056.019-.074.056l-.446,1.228a1.461,1.461,0,0,0-.112.521c0,.149.13.2.279.2h.074c.056,0,.074.037.074.056,0,.037-.056.056-.112.056-.186,0-.632-.019-.707-.019s-.484.019-.8.019c-.093,0-.149-.019-.149-.056s.037-.056.074-.056a1.144,1.144,0,0,0,.242-.019c.353-.037.521-.316.67-.707Zm.874,3.218c.037,0,.037-.019.019-.056L25.727,61.3c-.037-.112-.093-.112-.13,0l-.744,2.121c-.019.037,0,.056.019.056Z" transform="translate(-18.324 -59.959)" fill="#fff"/>
          <path id="path6" d="M31.467,64.872c.019.632.093.819.316.874a1.764,1.764,0,0,0,.391.037.059.059,0,0,1,.056.056c0,.037-.056.056-.149.056-.446,0-.763-.019-.837-.019s-.409.019-.763.019c-.074,0-.13,0-.13-.056a.059.059,0,0,1,.056-.056,1.282,1.282,0,0,0,.335-.037c.2-.056.223-.26.223-.967V60.37c0-.3.037-.391.112-.391.093,0,.223.149.316.242.13.13,1.284,1.358,2.511,2.623.781.819,1.637,1.73,1.879,1.99l-.074-3.851c-.019-.5-.056-.67-.3-.707-.149-.019-.335-.037-.391-.037s-.056-.037-.056-.074.056-.056.149-.056c.353,0,.744.019.837.019s.353-.019.688-.019c.074,0,.149.019.149.056a.1.1,0,0,1-.093.074.854.854,0,0,0-.186.019c-.26.056-.279.2-.279.67l-.019,4.5c0,.5,0,.558-.056.558-.074,0-.167-.056-.614-.465-.074-.074-1.228-1.209-2.065-2.083-.93-.967-1.823-1.916-2.065-2.176Z" transform="translate(-18.873 -59.961)" fill="#fff"/>
          <path id="path8" d="M41.555,63.7c0,.744,0,1.358.037,1.674.019.223.056.372.316.409a3.277,3.277,0,0,0,.353.037c.056,0,.056.037.056.056,0,.037-.037.056-.13.056-.428,0-.949-.019-.986-.019s-.6.019-.819.019c-.093,0-.13-.019-.13-.056a.059.059,0,0,1,.056-.056,1.088,1.088,0,0,0,.242-.037c.167-.037.2-.186.242-.409.037-.316.037-.93.037-1.674V60.465l-1.153.019c-.5.019-.688.056-.8.242a1.706,1.706,0,0,0-.13.242c-.019.056-.037.074-.074.074a.059.059,0,0,1-.056-.056c0-.074.167-.763.167-.837.019-.037.056-.149.074-.149.056,0,.13.056.353.093a4.432,4.432,0,0,0,.632.037h3.014a4.021,4.021,0,0,0,.577-.037c.112-.019.186-.037.223-.037s.037.037.037.093c0,.242-.019.781-.019.874a.085.085,0,0,1-.074.093c-.037,0-.056-.019-.056-.13v-.074c-.019-.242-.2-.409-.967-.428l-1-.019V63.7Z" transform="translate(-19.473 -59.962)" fill="#fff"/>
          <path id="path10" d="M47.543,60.257c.093-.26.13-.3.186-.3.074,0,.112.112.186.279.149.335,1.414,3.5,1.916,4.669.3.688.5.781.688.837a1.033,1.033,0,0,0,.316.037c.037,0,.093.019.093.056s-.093.056-.186.056c-.112,0-.707,0-1.265-.019-.149,0-.279,0-.279-.056,0-.037.019-.037.056-.056a.144.144,0,0,0,.074-.2l-.707-1.767c-.019-.037-.019-.037-.074-.037H46.706c-.037,0-.056.019-.074.056l-.446,1.228a1.461,1.461,0,0,0-.112.521c0,.149.13.2.279.2h.074c.056,0,.074.037.074.056,0,.037-.056.056-.112.056-.186,0-.632-.019-.707-.019s-.484.019-.8.019c-.093,0-.149-.019-.149-.056s.037-.056.074-.056a1.144,1.144,0,0,0,.242-.019c.353-.037.521-.316.67-.707Zm.893,3.218c.037,0,.037-.019.019-.056L47.673,61.3c-.037-.112-.093-.112-.13,0L46.8,63.419c0,.037,0,.056.019.056Z" transform="translate(-19.918 -59.959)" fill="#fff"/>
          <path id="path12" d="M56.836,62.349c0-1.191,0-1.414-.019-1.656-.019-.26-.056-.391-.335-.428a1.318,1.318,0,0,0-.279-.019.084.084,0,0,1-.056-.056c0-.037.037-.056.13-.056.353,0,.856.019.912.019.149,0,1.879.019,2.065,0a.879.879,0,0,0,.353-.037c.037,0,.074-.037.112-.037s.056.037.056.074c0,.056-.037.149-.056.353-.019.074-.019.409-.037.5a.08.08,0,0,1-.074.074c-.037,0-.056-.037-.056-.093a.76.76,0,0,0-.074-.3.61.61,0,0,0-.539-.223l-1.3-.019c-.037,0-.056.019-.056.074v2.1c0,.037,0,.074.056.074l1.079-.019h.372c.186-.019.3-.037.372-.13.037-.037.074-.074.093-.074.037,0,.037.019.037.056a2.692,2.692,0,0,0-.074.428c-.019.149-.019.465-.019.521,0,.074-.019.149-.074.149-.037,0-.056-.037-.056-.074a.825.825,0,0,0-.056-.279c-.037-.112-.167-.2-.409-.242-.2-.019-1.135-.019-1.284-.019-.037,0-.056.019-.056.074v.614c0,.763,0,1.358.037,1.674.019.223.074.372.279.409a3.131,3.131,0,0,0,.372.037.059.059,0,0,1,.056.056c0,.037-.037.056-.13.056-.446,0-.967-.019-1-.019s-.539.019-.781.019c-.074,0-.13-.019-.13-.056a.059.059,0,0,1,.056-.056,1.089,1.089,0,0,0,.242-.037c.149-.019.167-.186.2-.409.037-.316.037-.93.037-1.674V62.349Z" transform="translate(-20.747 -59.968)" fill="#fff"/>
          <path id="path14" d="M62.634,62.349c0-1.191,0-1.414-.019-1.656-.019-.26-.056-.391-.335-.428A1.318,1.318,0,0,0,62,60.247a.084.084,0,0,1-.056-.056c0-.037.037-.056.13-.056.353,0,.874.019.93.019s1.73.019,1.9,0c.149,0,.3-.037.353-.037a.265.265,0,0,1,.112-.037c.019,0,.037.037.037.074,0,.056-.037.149-.056.353a4.92,4.92,0,0,1-.037.5c-.019.037-.037.074-.074.074s-.056-.037-.056-.093a.822.822,0,0,0-.037-.279c-.056-.13-.13-.186-.577-.242-.13-.019-1.06-.019-1.153-.019-.037,0-.037.019-.037.074V62.61c0,.056,0,.074.037.074.093,0,1.153,0,1.339-.019s.316-.019.391-.112c.056-.056.093-.093.112-.093a.059.059,0,0,1,.056.056,2.7,2.7,0,0,0-.074.428c-.019.149-.037.446-.037.5s-.019.149-.074.149c-.037,0-.056-.019-.056-.074a.726.726,0,0,0-.037-.26c-.019-.112-.093-.2-.409-.242-.223-.019-1.06-.037-1.209-.037a.049.049,0,0,0-.056.056v1.953c.019.521.167.614.949.614a2.918,2.918,0,0,0,.8-.074.572.572,0,0,0,.353-.539c.019-.093.037-.112.074-.112s.056.056.056.112a4.823,4.823,0,0,1-.112.744c-.056.2-.13.2-.446.2-.6,0-1.06-.019-1.377-.019-.335-.019-.539-.019-.67-.019h-.335a4.045,4.045,0,0,1-.465.019c-.074,0-.13-.019-.13-.056a.059.059,0,0,1,.056-.056,1.089,1.089,0,0,0,.242-.037c.149-.019.167-.186.2-.409.037-.316.037-.93.037-1.674V62.349Z" transform="translate(-21.168 -59.968)" fill="#fff"/>
        </g>
      </g>
      <ellipse id="circle20" cx="13.078" cy="13.078" rx="13.078" ry="13.078" transform="translate(7.255)" fill="#2e2a25"/>
    </g>
    <g id="g32" transform="translate(30.276 10.008)">
      <g id="g30" transform="translate(0 0)">
        <g id="g28">
          <path id="path24" d="M32.711,27.771H33.1a6.44,6.44,0,0,0,.781,1.563,3.014,3.014,0,0,0,1,.949,2.272,2.272,0,0,0,1.135.316,1.8,1.8,0,0,0,1.265-.465,1.513,1.513,0,0,0,.521-1.191,1.493,1.493,0,0,0-.353-1.06,1.879,1.879,0,0,0-.837-.521,11.951,11.951,0,0,0-1.284-.279,9.339,9.339,0,0,1-1.116-.242,2.654,2.654,0,0,1-.874-.484,1.916,1.916,0,0,1-.539-.744,2.247,2.247,0,0,1-.186-.93,2.552,2.552,0,0,1,.167-.912,2.357,2.357,0,0,1,.465-.781,2.191,2.191,0,0,1,.744-.539,2.37,2.37,0,0,1,.967-.2,4.966,4.966,0,0,1,.949.112,4.762,4.762,0,0,0,.819.112,1.283,1.283,0,0,0,.6-.149h.446l.26,2.437H37.6A6.249,6.249,0,0,0,36.394,23.1a2.141,2.141,0,0,0-1.488-.577,1.762,1.762,0,0,0-.8.2,1.662,1.662,0,0,0-.6.539,1.4,1.4,0,0,0-.223.763,1.09,1.09,0,0,0,.409.912,2.74,2.74,0,0,0,1.191.465c.521.112,1,.2,1.414.279a3.454,3.454,0,0,1,.986.3,2.671,2.671,0,0,1,1.06.912,2.326,2.326,0,0,1,.372,1.321,2.733,2.733,0,0,1-.335,1.321,2.59,2.59,0,0,1-.967.986,2.7,2.7,0,0,1-1.4.372,2.9,2.9,0,0,1-.651-.056c-.149-.037-.391-.13-.744-.26a2.554,2.554,0,0,0-.819-.186.876.876,0,0,0-.744.353h-.335V27.771Zm.2-3.795a4.277,4.277,0,0,0-.093.725,1.89,1.89,0,0,0,.112.632,2.048,2.048,0,0,0,.316.6,2.2,2.2,0,0,0,.465.465,2.57,2.57,0,0,0,.763.335c.279.056.688.149,1.228.223a5.509,5.509,0,0,1,1.116.26,1.962,1.962,0,0,1,.893.632,1.658,1.658,0,0,1,.316,1,1.9,1.9,0,0,1-.242.893,1.606,1.606,0,0,0,.5-1.172,1.559,1.559,0,0,0-.353-1.1,2.286,2.286,0,0,0-.893-.6,9.2,9.2,0,0,0-1.451-.353q-.921-.167-.949-.167a2.224,2.224,0,0,1-1.265-.763,1.985,1.985,0,0,1-.428-1.246v-.223C32.952,24.07,32.915,24.032,32.915,23.977Zm0,4.892V30.45a1.134,1.134,0,0,1,.316-.3,1.3,1.3,0,0,1,.446-.056q-.2-.223-.279-.335a2.2,2.2,0,0,1-.2-.335,3.1,3.1,0,0,1-.279-.558Zm4.446-4.93-.2-1.135a1.416,1.416,0,0,1-.391.056A2.11,2.11,0,0,1,36.3,22.8a2.461,2.461,0,0,1,.409.335c.112.13.242.279.372.446C37.231,23.772,37.324,23.884,37.361,23.939Z" transform="translate(-32.618 -22.247)" fill="#fff"/>
          <path id="path26" d="M39.416,22.427H46.3l.725,1.916h-.446a5.059,5.059,0,0,0-.8-.744,4.8,4.8,0,0,0-.856-.521,3.071,3.071,0,0,0-.8-.26,4.353,4.353,0,0,0-.707-.056,2.29,2.29,0,0,0-.856.112.522.522,0,0,0-.316.409,5.375,5.375,0,0,0-.074.986v2.046h1.079a1.826,1.826,0,0,0,1.228-.372,1.4,1.4,0,0,0,.428-1.116h.428v3.162H44.9a2.617,2.617,0,0,0-.2-.874.793.793,0,0,0-.5-.372,4.354,4.354,0,0,0-1-.093H42.17v2.883a.875.875,0,0,0,.279.725,1.84,1.84,0,0,0,1,.2H43.6V30.8H39.416v-.335a3.462,3.462,0,0,0,.837-.112.628.628,0,0,0,.353-.335,2.365,2.365,0,0,0,.093-.725V23.841a1.353,1.353,0,0,0-.2-.819c-.149-.167-.446-.242-.949-.242H39.4v-.353Zm1.86,7.274V24.139a8.472,8.472,0,0,0-.037-.874.47.47,0,0,0-.223-.391.906.906,0,0,0-.6-.074.625.625,0,0,1,.409.316,2.564,2.564,0,0,1,.074.8V29.44a4.076,4.076,0,0,1-.019.539.63.63,0,0,1-.112.279.819.819,0,0,1-.3.223.66.66,0,0,0,.8-.781Zm3.609-2.642V25.813a1.013,1.013,0,0,1-.3.372,2.079,2.079,0,0,1-.539.26,1.58,1.58,0,0,1,.558.223A.759.759,0,0,1,44.886,27.059ZM46.3,23.748l-.577-.986H44.607a4.311,4.311,0,0,1,.651.26,2.387,2.387,0,0,1,.484.3A5.693,5.693,0,0,1,46.3,23.748Z" transform="translate(-33.11 -22.26)" fill="#fff"/>
        </g>
      </g>
    </g>
    <g id="g56" transform="translate(0.177 0)">
      <path id="path34" d="M50.036,24.495a2.251,2.251,0,0,0-.019-.353h1.935A12.706,12.706,0,0,0,51.6,21.5l-1.916.26a11.174,11.174,0,0,0-7.869-8.018l.186-1.9a12.909,12.909,0,0,0-2.66-.372v1.9c-.149,0-.316-.019-.465-.019H38.54v-1.9a12.681,12.681,0,0,0-2.642.335l.242,1.879a11.143,11.143,0,0,0-8.074,8.073l-1.916-.26a14.09,14.09,0,0,0-.353,2.642h1.935v.353a4.046,4.046,0,0,0,.019.465H25.816a14.481,14.481,0,0,0,.353,2.679l1.953-.2a11.167,11.167,0,0,0,8.036,7.869l-.279,1.953a12.84,12.84,0,0,0,2.642.335V35.6h.335a3.887,3.887,0,0,0,.465-.019v1.972A13.086,13.086,0,0,0,42,37.181l-.2-1.99a11.149,11.149,0,0,0,7.813-7.813l1.953.2a12.891,12.891,0,0,0,.353-2.679H49.98a1.361,1.361,0,0,0,.056-.409ZM38.875,35.3A10.827,10.827,0,1,1,49.7,24.476,10.825,10.825,0,0,1,38.875,35.3Z" transform="translate(-2.023 -11.454)" fill="#8d734a"/>
      <g id="g40" transform="translate(34.396 5.209)">
        <path id="polygon36" d="M41.482,20.622H37.873l.037.335h3.5Z" transform="translate(-37.297 -17.329)" fill="#8d734a"/>
        <path id="path38" d="M41.9,17.759a.167.167,0,0,0-.167.167c0,.037.019.056.037.093l-.558.409-.13-.465a.162.162,0,0,0,.112-.149.167.167,0,1,0-.335,0,.188.188,0,0,0,.074.13l-.521.372-.707-.93a.162.162,0,0,0,.112-.149.167.167,0,1,0-.335,0,.141.141,0,0,0,.112.149l-.707.93-.521-.372a.14.14,0,0,0,.074-.13.167.167,0,0,0-.167-.167.152.152,0,0,0-.149.167.166.166,0,0,0,.093.149l-.13.465-.558-.391a.264.264,0,0,0,.037-.112.164.164,0,0,0-.149-.167.167.167,0,0,0,0,.335h.019l.372,1.972h3.627l.428-1.972H41.9a.152.152,0,0,0,.149-.167.142.142,0,0,0-.149-.167Z" transform="translate(-37.251 -17.071)" fill="#8d734a"/>
      </g>
      <g id="g54" transform="translate(0 31.364)">
        <path id="path42" d="M1.909,54.769A5.21,5.21,0,0,1,.16,50.639a5.549,5.549,0,0,1,1.618-3.795,5.946,5.946,0,0,1,4.39-1.488,14.672,14.672,0,0,1,2.1.167,8.962,8.962,0,0,0,1.47.2c.149,0,.186.074.186.149,0,.112-.037.279-.074.781-.019.465-.019,1.228-.037,1.432s-.074.3-.167.3-.112-.093-.112-.3a1.786,1.786,0,0,0-.614-1.4,4.675,4.675,0,0,0-2.828-.763,4.348,4.348,0,0,0-3.237.967,4.587,4.587,0,0,0-1.3,3.646,5.056,5.056,0,0,0,5.19,5.041,3.051,3.051,0,0,0,2.381-.651,2.586,2.586,0,0,0,.558-1.172c.037-.149.056-.2.149-.2.074,0,.13.093.13.2a18.052,18.052,0,0,1-.335,1.786c-.074.26-.112.316-.353.409a8.741,8.741,0,0,1-2.6.316,6.8,6.8,0,0,1-4.762-1.507Z" transform="translate(-0.16 -45.281)" fill="#fff"/>
        <path id="path44" d="M19.054,45.815c.186-.465.242-.539.335-.539.149,0,.2.2.335.5.26.6,2.567,6.343,3.46,8.464.521,1.246.912,1.432,1.228,1.525a1.692,1.692,0,0,0,.577.074c.093,0,.186.037.186.112s-.167.112-.335.112c-.2,0-1.284,0-2.27-.037-.279-.019-.5-.019-.5-.093s.037-.074.093-.093a.269.269,0,0,0,.13-.372l-1.3-3.2a.125.125,0,0,0-.13-.074H17.548a.174.174,0,0,0-.149.112l-.819,2.232a2.915,2.915,0,0,0-.2.93c0,.279.242.372.484.372h.13c.112,0,.149.056.149.112,0,.074-.074.112-.2.112-.353,0-1.135-.056-1.3-.056-.149,0-.874.056-1.451.056q-.279,0-.279-.112a.123.123,0,0,1,.13-.112,3.633,3.633,0,0,0,.428-.037c.651-.074.93-.577,1.209-1.284Zm1.618,5.8c.074,0,.074-.037.056-.093L19.3,47.712c-.074-.2-.167-.2-.242,0l-1.339,3.814c-.019.074,0,.093.056.093Z" transform="translate(-1.159 -45.275)" fill="#fff"/>
        <path id="path46" d="M29.451,55.883c-.2-.093-.223-.149-.223-.521a14.247,14.247,0,0,1,.093-1.47q0-.223.112-.223c.074,0,.13.056.13.167a1.785,1.785,0,0,0,.056.5,2.1,2.1,0,0,0,2.27,1.377c1.432,0,2.158-.8,2.158-1.86,0-1-.539-1.47-1.823-2.437l-.651-.484c-1.563-1.172-2.065-2.009-2.065-2.976,0-1.637,1.3-2.623,3.2-2.623a6.2,6.2,0,0,1,1.488.167,1.643,1.643,0,0,0,.5.074c.112,0,.149.019.149.093a12.7,12.7,0,0,0-.074,1.47c0,.2-.019.316-.112.316s-.112-.056-.13-.186a2.934,2.934,0,0,0-.2-.688c-.093-.167-.577-.688-1.86-.688-1.042,0-1.916.521-1.916,1.507,0,.893.446,1.4,1.86,2.363l.409.279c1.749,1.191,2.363,2.158,2.363,3.367a2.736,2.736,0,0,1-1.339,2.381,4.449,4.449,0,0,1-2.288.484A5.346,5.346,0,0,1,29.451,55.883Z" transform="translate(-2.272 -45.28)" fill="#fff"/>
        <path id="path48" d="M43.925,52.049c0,1.339,0,2.437.074,3.014.056.409.093.67.521.744a4.6,4.6,0,0,0,.651.056.119.119,0,0,1,.112.112c0,.056-.056.112-.223.112-.8,0-1.73-.056-1.8-.056s-.986.056-1.432.056q-.223,0-.223-.112a.107.107,0,0,1,.112-.112,3.66,3.66,0,0,0,.446-.056c.279-.074.335-.335.372-.744.074-.577.074-1.674.074-3.014V49.593c0-2.158,0-2.567-.037-2.995-.037-.484-.149-.688-.465-.763a2.4,2.4,0,0,0-.446-.056.107.107,0,0,1-.112-.112c0-.074.056-.112.223-.112.465,0,1.377.037,1.451.037s1-.037,1.451-.037c.167,0,.223.037.223.112a.138.138,0,0,1-.112.112,1.336,1.336,0,0,0-.353.037c-.391.074-.484.279-.5.763-.019.446-.019.837-.019,2.995v2.474Z" transform="translate(-3.167 -45.296)" fill="#fff"/>
        <path id="path50" d="M52.721,54.193c.037,1.153.167,1.488.558,1.6a2.873,2.873,0,0,0,.726.074.12.12,0,0,1,.112.112c0,.074-.093.112-.26.112-.819,0-1.4-.056-1.525-.056s-.744.056-1.4.056c-.149,0-.223-.019-.223-.112a.107.107,0,0,1,.112-.112,2.834,2.834,0,0,0,.6-.074c.353-.093.409-.484.409-1.73v-7.98c0-.558.074-.707.2-.707.167,0,.409.279.558.428.223.223,2.325,2.456,4.558,4.762,1.432,1.47,2.958,3.125,3.4,3.59L60.4,47.18c-.019-.912-.093-1.209-.539-1.3a4.115,4.115,0,0,0-.707-.074c-.093,0-.112-.074-.112-.13,0-.074.112-.093.279-.093.651,0,1.339.037,1.507.037s.632-.037,1.228-.037c.149,0,.26.019.26.093a.165.165,0,0,1-.167.13,1.282,1.282,0,0,0-.335.037c-.484.093-.5.372-.5,1.209l-.037,8.166c0,.912-.019,1-.112,1-.149,0-.3-.112-1.1-.856-.149-.13-2.232-2.176-3.758-3.776-1.674-1.749-3.293-3.46-3.739-3.944Z" transform="translate(-3.833 -45.283)" fill="#fff"/>
        <path id="path52" d="M73.554,45.356c3.255,0,5.711,1.99,5.711,5.227a5.588,5.588,0,0,1-5.785,5.692,5.34,5.34,0,0,1-5.637-5.469,5.491,5.491,0,0,1,5.711-5.451ZM73.889,55.7c1.3,0,3.907-.688,3.907-4.725,0-3.348-2.028-5.1-4.316-5.1-2.418,0-4.148,1.507-4.148,4.539C69.331,53.652,71.266,55.7,73.889,55.7Z" transform="translate(-5.078 -45.281)" fill="#fff"/>
      </g>
    </g>
  </g>
</svg>
