<svg xmlns="http://www.w3.org/2000/svg" width="133.538" height="27.641" viewBox="0 0 133.538 27.641">
  <g id="g112" transform="translate(0.006)">
    <g id="g6" transform="translate(57.452 1.269)">
      <path id="path2" d="M66.083,55.98a6.914,6.914,0,0,1-7.144,7.244,6.826,6.826,0,0,1-6.977-7.044A7,7,0,0,1,59.173,49a6.793,6.793,0,0,1,6.91,6.977ZM54.8,55.713c0,3.705,1.769,6.677,4.573,6.677,2.1,0,3.906-1.936,3.906-5.842,0-4.24-1.9-6.71-4.44-6.71C56.636,49.838,54.8,52.008,54.8,55.713Z" transform="translate(-51.962 -49.003)" fill="#fff"/>
      <path id="path4" d="M79.77,49.982c-1.369.167-1.736.4-2.537,2.337C76.6,53.855,74.562,58.8,72.96,63.1h-.9c-1.435-3.839-3.3-8.679-4.273-11.183-.634-1.6-.968-1.836-2.237-1.97v-.7h5.842v.7c-1.536.2-1.536.434-1.2,1.3.6,1.6,2.17,5.775,3.171,8.312h.033c1.135-2.871,2.27-5.909,2.871-7.812.467-1.369.4-1.6-1.3-1.836v-.7H79.8v.768Z" transform="translate(-50.527 -48.981)" fill="#fff"/>
    </g>
    <g id="g16" transform="translate(84.659 1.269)">
      <path id="path8" d="M84.782,62.924v-.668c1.269-.2,1.369-.434,1.1-1.3-.234-.7-.6-1.669-.968-2.671H80.742c-.267.768-.568,1.569-.8,2.4-.367,1.135-.267,1.369,1.269,1.569v.668h-4.64v-.668c1.369-.2,1.636-.367,2.337-2.17L83.179,49.27,84.114,49c1.335,3.639,2.671,7.411,4.006,11.016.7,1.836.968,2.07,2.3,2.237v.668ZM82.912,52.442h-.067c-.6,1.6-1.168,3.238-1.769,4.807h3.472Z" transform="translate(-76.569 -49.003)" fill="#fff"/>
      <path id="path10" d="M100.718,59.457c-.167.8-.6,2.871-.768,3.438H90.036v-.668c1.769-.134,2-.3,2-2.07V52.012c0-1.769-.2-1.9-1.8-2.036v-.7h6.042v.7c-1.6.134-1.8.267-1.8,2.036v8.212c0,1.035.067,1.435.5,1.6a4.628,4.628,0,0,0,1.7.2,2.64,2.64,0,0,0,2.2-.7,6.281,6.281,0,0,0,1.135-2.1Z" transform="translate(-75.147 -48.975)" fill="#fff"/>
      <path id="path12" d="M111.044,59.457c-.167.8-.6,2.871-.768,3.438h-9.915v-.668c1.769-.134,2-.3,2-2.07V52.012c0-1.769-.2-1.9-1.8-2.036v-.7h6.009v.7c-1.6.134-1.8.267-1.8,2.036v8.212c0,1.035.1,1.435.5,1.6a4.628,4.628,0,0,0,1.7.2,2.64,2.64,0,0,0,2.2-.7,6.281,6.281,0,0,0,1.135-2.1Z" transform="translate(-74.056 -48.975)" fill="#fff"/>
      <path id="path14" d="M121.841,59.487c-.134.835-.534,2.771-.734,3.405H110.657v-.668c1.836-.134,2-.3,2-2.036V52.043c0-1.836-.2-1.936-1.7-2.036v-.7h9.648c.033.434.134,1.869.2,3.1l-.7.1a4.56,4.56,0,0,0-.768-1.8c-.334-.4-.9-.534-2.2-.534h-1.2c-.734,0-.8.033-.8.7v4.54h1.6c1.8,0,2-.134,2.27-1.569h.7v4.139H119c-.267-1.5-.467-1.6-2.27-1.6h-1.6v3.739c0,1,.1,1.5.5,1.7a4.973,4.973,0,0,0,1.97.234c1.269,0,1.97-.134,2.437-.7a7.216,7.216,0,0,0,1.135-2Z" transform="translate(-72.968 -48.971)" fill="#fff"/>
    </g>
    <g id="g22" transform="translate(57.452 1.269)">
      <path id="path18" d="M66.083,55.98a6.914,6.914,0,0,1-7.144,7.244,6.826,6.826,0,0,1-6.977-7.044A7,7,0,0,1,59.173,49a6.793,6.793,0,0,1,6.91,6.977ZM54.8,55.713c0,3.705,1.769,6.677,4.573,6.677,2.1,0,3.906-1.936,3.906-5.842,0-4.24-1.9-6.71-4.44-6.71C56.636,49.838,54.8,52.008,54.8,55.713Z" transform="translate(-51.962 -49.003)" fill="#fff"/>
      <path id="path20" d="M79.77,49.982c-1.369.167-1.736.4-2.537,2.337C76.6,53.855,74.562,58.8,72.96,63.1h-.9c-1.435-3.839-3.3-8.679-4.273-11.183-.634-1.6-.968-1.836-2.237-1.97v-.7h5.842v.7c-1.536.2-1.536.434-1.2,1.3.6,1.6,2.17,5.775,3.171,8.312h.033c1.135-2.871,2.27-5.909,2.871-7.812.467-1.369.4-1.6-1.3-1.836v-.7H79.8v.768Z" transform="translate(-50.527 -48.981)" fill="#fff"/>
    </g>
    <g id="g32" transform="translate(84.659 1.269)">
      <path id="path24" d="M84.782,62.924v-.668c1.269-.2,1.369-.434,1.1-1.3-.234-.7-.6-1.669-.968-2.671H80.742c-.267.768-.568,1.569-.8,2.4-.367,1.135-.267,1.369,1.269,1.569v.668h-4.64v-.668c1.369-.2,1.636-.367,2.337-2.17L83.179,49.27,84.114,49c1.335,3.639,2.671,7.411,4.006,11.016.7,1.836.968,2.07,2.3,2.237v.668ZM82.912,52.442h-.067c-.6,1.6-1.168,3.238-1.769,4.807h3.472Z" transform="translate(-76.569 -49.003)" fill="#fff"/>
      <path id="path26" d="M100.718,59.457c-.167.8-.6,2.871-.768,3.438H90.036v-.668c1.769-.134,2-.3,2-2.07V52.012c0-1.769-.2-1.9-1.8-2.036v-.7h6.042v.7c-1.6.134-1.8.267-1.8,2.036v8.212c0,1.035.067,1.435.5,1.6a4.628,4.628,0,0,0,1.7.2,2.64,2.64,0,0,0,2.2-.7,6.281,6.281,0,0,0,1.135-2.1Z" transform="translate(-75.147 -48.975)" fill="#fff"/>
      <path id="path28" d="M111.044,59.457c-.167.8-.6,2.871-.768,3.438h-9.915v-.668c1.769-.134,2-.3,2-2.07V52.012c0-1.769-.2-1.9-1.8-2.036v-.7h6.009v.7c-1.6.134-1.8.267-1.8,2.036v8.212c0,1.035.1,1.435.5,1.6a4.628,4.628,0,0,0,1.7.2,2.64,2.64,0,0,0,2.2-.7,6.281,6.281,0,0,0,1.135-2.1Z" transform="translate(-74.056 -48.975)" fill="#fff"/>
      <path id="path30" d="M121.841,59.487c-.134.835-.534,2.771-.734,3.405H110.657v-.668c1.836-.134,2-.3,2-2.036V52.043c0-1.836-.2-1.936-1.7-2.036v-.7h9.648c.033.434.134,1.869.2,3.1l-.7.1a4.56,4.56,0,0,0-.768-1.8c-.334-.4-.9-.534-2.2-.534h-1.2c-.734,0-.8.033-.8.7v4.54h1.6c1.8,0,2-.134,2.27-1.569h.7v4.139H119c-.267-1.5-.467-1.6-2.27-1.6h-1.6v3.739c0,1,.1,1.5.5,1.7a4.973,4.973,0,0,0,1.97.234c1.269,0,1.97-.134,2.437-.7a7.216,7.216,0,0,0,1.135-2Z" transform="translate(-72.968 -48.971)" fill="#fff"/>
    </g>
    <g id="g38" transform="translate(57.786 21.498)">
      <path id="path34" d="M57.639,71.807a10.759,10.759,0,0,1-.5,1.369,7.535,7.535,0,0,1-1.636.234,2.945,2.945,0,0,1-3.238-2.971A3.165,3.165,0,0,1,55.736,67.3a7.454,7.454,0,0,1,1.569.234c.067.5.134.868.2,1.369l-.267.067A1.562,1.562,0,0,0,55.5,67.634a2.351,2.351,0,0,0-2.237,2.6c0,1.669.968,2.8,2.3,2.8.9,0,1.369-.5,1.836-1.369Z" transform="translate(-52.264 -67.3)" fill="#fff"/>
      <path id="path36" d="M61.063,73.276v-.267c.568-.067.634-.167.5-.5-.1-.334-.267-.8-.467-1.3H59.227c-.134.4-.267.768-.367,1.135-.167.534-.1.634.568.7v.267h-1.97v-.3c.568-.067.7-.134,1-.935L60.295,67.4l.3-.1c.568,1.536,1.168,3.238,1.736,4.774.267.768.4.868,1,.935v.267Zm-.868-4.707h0c-.3.734-.568,1.5-.835,2.237h1.6Z" transform="translate(-51.715 -67.3)" fill="#fff"/>
    </g>
    <g id="g44" transform="translate(69.87 21.532)">
      <path id="path40" d="M66.265,68.833c-.167-.568-.434-1.2-1.168-1.2a.909.909,0,0,0-.968.968c0,.634.4.935,1.135,1.3s1.536.8,1.536,1.8a1.809,1.809,0,0,1-2.036,1.7,2.782,2.782,0,0,1-.868-.134,1.6,1.6,0,0,1-.467-.2,9.32,9.32,0,0,1-.234-1.4l.267-.067c.134.567.568,1.469,1.469,1.469a.948.948,0,0,0,1.035-1.035c0-.634-.467-.968-1.135-1.3-.634-.334-1.5-.8-1.5-1.769A1.7,1.7,0,0,1,65.2,67.33a3.638,3.638,0,0,1,1.135.2c.033.334.1.668.167,1.235Z" transform="translate(-63.194 -67.33)" fill="#fff"/>
      <path id="path42" d="M66.968,73.26v-.267c.7-.067.8-.1.8-.868V68.586c0-.768-.067-.8-.8-.868v-.267h2.437v.267c-.7.067-.8.1-.8.868v3.539c0,.768.067.8.8.868v.267Z" transform="translate(-62.795 -67.318)" fill="#fff"/>
    </g>
    <g id="g60" transform="translate(76.947 21.498)">
      <path id="path46" d="M75.9,67.725c-.5.033-.7.134-.768.534a11.862,11.862,0,0,0-.067,1.5v3.605h-.3l-3.806-4.64H70.93v2.2a12.289,12.289,0,0,0,.067,1.5c.033.434.234.567.868.6V73.3h-2.1V73c.5-.033.734-.167.768-.568A12.556,12.556,0,0,0,70.6,70.9V68.96c0-.634-.033-.7-.2-.9-.167-.234-.367-.3-.8-.334v-.267H71l3.672,4.373H74.7v-2.1a12.291,12.291,0,0,0-.067-1.5c-.033-.4-.267-.534-.9-.568v-.267h2.137v.334Z" transform="translate(-69.595 -67.291)" fill="#fff"/>
      <path id="path48" d="M81.757,70.3a2.973,2.973,0,1,1-5.942.1,3,3,0,0,1,3.038-3.1A2.929,2.929,0,0,1,81.757,70.3Zm-4.941-.1c0,1.636.868,2.9,2.137,2.9.968,0,1.8-.835,1.8-2.537,0-1.869-.935-2.871-2.07-2.871C77.684,67.667,76.816,68.535,76.816,70.2Z" transform="translate(-68.938 -67.3)" fill="#fff"/>
      <path id="path50" d="M89.731,69.694a1.16,1.16,0,0,0-1.035.668c-.234.334-.467.7-.768,1.168a9.629,9.629,0,0,1,1.469,1.8l-.067.1a2.034,2.034,0,0,1-1.168-.367c-.1-.134-.467-.534-.768-.835A2.327,2.327,0,0,1,85.558,73.4a1.7,1.7,0,0,1-1.8-1.636c0-.8.568-1.168,1.335-1.7a1.67,1.67,0,0,1-.634-1.235,1.483,1.483,0,0,1,1.5-1.435,1.288,1.288,0,0,1,1.369,1.235.948.948,0,0,1-.367.768c-.167.134-.4.3-.7.534A15.1,15.1,0,0,1,87.728,71.3a5.608,5.608,0,0,0,.534-1c.167-.4.1-.534-.534-.6v-.267H89.8v.267ZM87.16,72a20.2,20.2,0,0,0-1.869-1.736,1.514,1.514,0,0,0-.734,1.235,1.218,1.218,0,0,0,1.235,1.269A1.952,1.952,0,0,0,87.16,72Zm-2.036-3.438c0,.467.267.768.835,1.2a1.343,1.343,0,0,0,.634-1.135.843.843,0,0,0-.734-.935.779.779,0,0,0-.734.868Z" transform="translate(-68.099 -67.291)" fill="#fff"/>
      <path id="path52" d="M96.491,73.33h-.3a1.636,1.636,0,0,1-1.536-.835c-.3-.434-.6-.968-.868-1.4a.688.688,0,0,0-.734-.367h-.267v1.4c0,.768.067.8.8.868v.267h-2.4V73c.734-.067.8-.1.8-.868V68.556c0-.768-.067-.8-.768-.868v-.267h2.27a2.54,2.54,0,0,1,1.469.3,1.324,1.324,0,0,1,.6,1.168,1.645,1.645,0,0,1-1.135,1.536c.167.3.534.9.8,1.3.334.467.5.7.7.935a1.055,1.055,0,0,0,.634.4Zm-3.3-2.9a1.4,1.4,0,0,0,.968-.267,1.309,1.309,0,0,0,.467-1.1,1.192,1.192,0,0,0-1.269-1.335c-.267,0-.4.033-.467.1s-.1.167-.1.4v2.2Z" transform="translate(-67.314 -67.287)" fill="#fff"/>
      <path id="path54" d="M100.838,71.861c-.033.3-.234,1.135-.3,1.435H96.165V73c.8-.067.9-.134.9-.868V68.589c0-.8-.067-.835-.768-.9v-.267h4.039c0,.2.033.835.067,1.3l-.267.033a1.84,1.84,0,0,0-.3-.768c-.134-.2-.367-.267-1-.267H98.2c-.3,0-.3.033-.3.3v2h.8c.8,0,.868-.067.968-.668h.267v1.736H99.67c-.1-.634-.2-.7-.968-.7h-.8v1.669c0,.434.067.634.2.734a2.057,2.057,0,0,0,.9.1c.634,0,.9-.067,1.1-.3a3.23,3.23,0,0,0,.467-.835Z" transform="translate(-66.788 -67.287)" fill="#fff"/>
      <path id="path56" d="M103.946,68.833c-.167-.568-.434-1.2-1.168-1.2a.909.909,0,0,0-.968.968c0,.634.4.935,1.135,1.3s1.536.8,1.536,1.8a1.809,1.809,0,0,1-2.036,1.7,2.782,2.782,0,0,1-.868-.134,1.6,1.6,0,0,1-.467-.2,9.32,9.32,0,0,1-.234-1.4l.267-.067c.134.567.568,1.469,1.469,1.469a.948.948,0,0,0,1.035-1.035c0-.634-.467-.968-1.135-1.3-.634-.334-1.5-.8-1.5-1.769a1.7,1.7,0,0,1,1.869-1.636,3.637,3.637,0,0,1,1.135.2c.033.334.1.668.167,1.235Z" transform="translate(-66.29 -67.297)" fill="#fff"/>
      <path id="path58" d="M110.712,70.3a2.973,2.973,0,1,1-5.942.1,3,3,0,0,1,3.038-3.1,2.929,2.929,0,0,1,2.9,3Zm-4.941-.1c0,1.636.868,2.9,2.136,2.9.968,0,1.8-.835,1.8-2.537,0-1.869-.935-2.871-2.07-2.871-1-.033-1.869.835-1.869,2.5Z" transform="translate(-65.879 -67.3)" fill="#fff"/>
    </g>
    <g id="g66" transform="translate(122.482 21.398)">
      <path id="path62" d="M116.086,73.33h-.3a1.637,1.637,0,0,1-1.536-.835c-.3-.434-.6-.968-.868-1.4a.688.688,0,0,0-.734-.367h-.267v1.4c0,.768.067.8.8.868v.267h-2.4V73c.734-.067.8-.1.8-.868V68.556c0-.768-.067-.8-.768-.868v-.267h2.27a2.541,2.541,0,0,1,1.469.3,1.324,1.324,0,0,1,.6,1.168,1.645,1.645,0,0,1-1.135,1.536c.167.3.534.9.8,1.3.334.467.5.7.7.935a1.055,1.055,0,0,0,.634.4Zm-3.3-2.9a1.4,1.4,0,0,0,.968-.267,1.309,1.309,0,0,0,.467-1.1,1.192,1.192,0,0,0-1.269-1.335c-.267,0-.4.033-.467.1s-.1.167-.1.4v2.2Z" transform="translate(-110.778 -67.187)" fill="#fff"/>
      <path id="path64" d="M120.329,68.879a2.787,2.787,0,0,0-.3-.835c-.167-.2-.3-.267-.968-.267h-.6V72.15c0,.7.067.8.9.868v.267h-2.637v-.267c.8-.067.868-.134.868-.868V67.777h-.5c-.734,0-.935.067-1.035.267a2.882,2.882,0,0,0-.3.8h-.267c.033-.568.1-1.168.1-1.636h.2c.134.2.234.234.5.234h3.539a.505.505,0,0,0,.467-.234h.2a14.689,14.689,0,0,0,.1,1.6Z" transform="translate(-110.28 -67.21)" fill="#fff"/>
    </g>
    <g id="g72" transform="translate(57.786 21.498)">
      <path id="path68" d="M57.639,71.807a10.759,10.759,0,0,1-.5,1.369,7.535,7.535,0,0,1-1.636.234,2.945,2.945,0,0,1-3.238-2.971A3.165,3.165,0,0,1,55.736,67.3a7.454,7.454,0,0,1,1.569.234c.067.5.134.868.2,1.369l-.267.067A1.562,1.562,0,0,0,55.5,67.634a2.351,2.351,0,0,0-2.237,2.6c0,1.669.968,2.8,2.3,2.8.9,0,1.369-.5,1.836-1.369Z" transform="translate(-52.264 -67.3)" fill="#fff"/>
      <path id="path70" d="M61.063,73.276v-.267c.568-.067.634-.167.5-.5-.1-.334-.267-.8-.467-1.3H59.227c-.134.4-.267.768-.367,1.135-.167.534-.1.634.568.7v.267h-1.97v-.3c.568-.067.7-.134,1-.935L60.295,67.4l.3-.1c.568,1.536,1.168,3.238,1.736,4.774.267.768.4.868,1,.935v.267Zm-.868-4.707h0c-.3.734-.568,1.5-.835,2.237h1.6Z" transform="translate(-51.715 -67.3)" fill="#fff"/>
    </g>
    <g id="g78" transform="translate(69.87 21.532)">
      <path id="path74" d="M66.265,68.833c-.167-.568-.434-1.2-1.168-1.2a.909.909,0,0,0-.968.968c0,.634.4.935,1.135,1.3s1.536.8,1.536,1.8a1.809,1.809,0,0,1-2.036,1.7,2.782,2.782,0,0,1-.868-.134,1.6,1.6,0,0,1-.467-.2,9.32,9.32,0,0,1-.234-1.4l.267-.067c.134.567.568,1.469,1.469,1.469a.948.948,0,0,0,1.035-1.035c0-.634-.467-.968-1.135-1.3-.634-.334-1.5-.8-1.5-1.769A1.7,1.7,0,0,1,65.2,67.33a3.638,3.638,0,0,1,1.135.2c.033.334.1.668.167,1.235Z" transform="translate(-63.194 -67.33)" fill="#fff"/>
      <path id="path76" d="M66.968,73.26v-.267c.7-.067.8-.1.8-.868V68.586c0-.768-.067-.8-.8-.868v-.267h2.437v.267c-.7.067-.8.1-.8.868v3.539c0,.768.067.8.8.868v.267Z" transform="translate(-62.795 -67.318)" fill="#fff"/>
    </g>
    <g id="g94" transform="translate(76.947 21.498)">
      <path id="path80" d="M75.9,67.725c-.5.033-.7.134-.768.534a11.862,11.862,0,0,0-.067,1.5v3.605h-.3l-3.806-4.64H70.93v2.2a12.289,12.289,0,0,0,.067,1.5c.033.434.234.567.868.6V73.3h-2.1V73c.5-.033.734-.167.768-.568A12.556,12.556,0,0,0,70.6,70.9V68.96c0-.634-.033-.7-.2-.9-.167-.234-.367-.3-.8-.334v-.267H71l3.672,4.373H74.7v-2.1a12.291,12.291,0,0,0-.067-1.5c-.033-.4-.267-.534-.9-.568v-.267h2.137v.334Z" transform="translate(-69.595 -67.291)" fill="#fff"/>
      <path id="path82" d="M81.757,70.3a2.973,2.973,0,1,1-5.942.1,3,3,0,0,1,3.038-3.1A2.929,2.929,0,0,1,81.757,70.3Zm-4.941-.1c0,1.636.868,2.9,2.137,2.9.968,0,1.8-.835,1.8-2.537,0-1.869-.935-2.871-2.07-2.871C77.684,67.667,76.816,68.535,76.816,70.2Z" transform="translate(-68.938 -67.3)" fill="#fff"/>
      <path id="path84" d="M89.731,69.694a1.16,1.16,0,0,0-1.035.668c-.234.334-.467.7-.768,1.168a9.629,9.629,0,0,1,1.469,1.8l-.067.1a2.034,2.034,0,0,1-1.168-.367c-.1-.134-.467-.534-.768-.835A2.327,2.327,0,0,1,85.558,73.4a1.7,1.7,0,0,1-1.8-1.636c0-.8.568-1.168,1.335-1.7a1.67,1.67,0,0,1-.634-1.235,1.483,1.483,0,0,1,1.5-1.435,1.288,1.288,0,0,1,1.369,1.235.948.948,0,0,1-.367.768c-.167.134-.4.3-.7.534A15.1,15.1,0,0,1,87.728,71.3a5.608,5.608,0,0,0,.534-1c.167-.4.1-.534-.534-.6v-.267H89.8v.267ZM87.16,72a20.2,20.2,0,0,0-1.869-1.736,1.514,1.514,0,0,0-.734,1.235,1.218,1.218,0,0,0,1.235,1.269A1.952,1.952,0,0,0,87.16,72Zm-2.036-3.438c0,.467.267.768.835,1.2a1.343,1.343,0,0,0,.634-1.135.843.843,0,0,0-.734-.935.779.779,0,0,0-.734.868Z" transform="translate(-68.099 -67.291)" fill="#fff"/>
      <path id="path86" d="M96.491,73.33h-.3a1.636,1.636,0,0,1-1.536-.835c-.3-.434-.6-.968-.868-1.4a.688.688,0,0,0-.734-.367h-.267v1.4c0,.768.067.8.8.868v.267h-2.4V73c.734-.067.8-.1.8-.868V68.556c0-.768-.067-.8-.768-.868v-.267h2.27a2.54,2.54,0,0,1,1.469.3,1.324,1.324,0,0,1,.6,1.168,1.645,1.645,0,0,1-1.135,1.536c.167.3.534.9.8,1.3.334.467.5.7.7.935a1.055,1.055,0,0,0,.634.4Zm-3.3-2.9a1.4,1.4,0,0,0,.968-.267,1.309,1.309,0,0,0,.467-1.1,1.192,1.192,0,0,0-1.269-1.335c-.267,0-.4.033-.467.1s-.1.167-.1.4v2.2Z" transform="translate(-67.314 -67.287)" fill="#fff"/>
      <path id="path88" d="M100.838,71.861c-.033.3-.234,1.135-.3,1.435H96.165V73c.8-.067.9-.134.9-.868V68.589c0-.8-.067-.835-.768-.9v-.267h4.039c0,.2.033.835.067,1.3l-.267.033a1.84,1.84,0,0,0-.3-.768c-.134-.2-.367-.267-1-.267H98.2c-.3,0-.3.033-.3.3v2h.8c.8,0,.868-.067.968-.668h.267v1.736H99.67c-.1-.634-.2-.7-.968-.7h-.8v1.669c0,.434.067.634.2.734a2.057,2.057,0,0,0,.9.1c.634,0,.9-.067,1.1-.3a3.23,3.23,0,0,0,.467-.835Z" transform="translate(-66.788 -67.287)" fill="#fff"/>
      <path id="path90" d="M103.946,68.833c-.167-.568-.434-1.2-1.168-1.2a.909.909,0,0,0-.968.968c0,.634.4.935,1.135,1.3s1.536.8,1.536,1.8a1.809,1.809,0,0,1-2.036,1.7,2.782,2.782,0,0,1-.868-.134,1.6,1.6,0,0,1-.467-.2,9.32,9.32,0,0,1-.234-1.4l.267-.067c.134.567.568,1.469,1.469,1.469a.948.948,0,0,0,1.035-1.035c0-.634-.467-.968-1.135-1.3-.634-.334-1.5-.8-1.5-1.769a1.7,1.7,0,0,1,1.869-1.636,3.637,3.637,0,0,1,1.135.2c.033.334.1.668.167,1.235Z" transform="translate(-66.29 -67.297)" fill="#fff"/>
      <path id="path92" d="M110.712,70.3a2.973,2.973,0,1,1-5.942.1,3,3,0,0,1,3.038-3.1,2.929,2.929,0,0,1,2.9,3Zm-4.941-.1c0,1.636.868,2.9,2.136,2.9.968,0,1.8-.835,1.8-2.537,0-1.869-.935-2.871-2.07-2.871-1-.033-1.869.835-1.869,2.5Z" transform="translate(-65.879 -67.3)" fill="#fff"/>
    </g>
    <g id="g100" transform="translate(122.482 21.398)">
      <path id="path96" d="M116.086,73.33h-.3a1.637,1.637,0,0,1-1.536-.835c-.3-.434-.6-.968-.868-1.4a.688.688,0,0,0-.734-.367h-.267v1.4c0,.768.067.8.8.868v.267h-2.4V73c.734-.067.8-.1.8-.868V68.556c0-.768-.067-.8-.768-.868v-.267h2.27a2.541,2.541,0,0,1,1.469.3,1.324,1.324,0,0,1,.6,1.168,1.645,1.645,0,0,1-1.135,1.536c.167.3.534.9.8,1.3.334.467.5.7.7.935a1.055,1.055,0,0,0,.634.4Zm-3.3-2.9a1.4,1.4,0,0,0,.968-.267,1.309,1.309,0,0,0,.467-1.1,1.192,1.192,0,0,0-1.269-1.335c-.267,0-.4.033-.467.1s-.1.167-.1.4v2.2Z" transform="translate(-110.778 -67.187)" fill="#fff"/>
      <path id="path98" d="M120.329,68.879a2.787,2.787,0,0,0-.3-.835c-.167-.2-.3-.267-.968-.267h-.6V72.15c0,.7.067.8.9.868v.267h-2.637v-.267c.8-.067.868-.134.868-.868V67.777h-.5c-.734,0-.935.067-1.035.267a2.882,2.882,0,0,0-.3.8h-.267c.033-.568.1-1.168.1-1.636h.2c.134.2.234.234.5.234h3.539a.505.505,0,0,0,.467-.234h.2a14.689,14.689,0,0,0,.1,1.6Z" transform="translate(-110.28 -67.21)" fill="#fff"/>
    </g>
    <path id="path102" d="M52.27,73.815a2.714,2.714,0,0,0-.6-.634L40.052,63.666a3.586,3.586,0,0,0-2.337-.835,3.775,3.775,0,0,0-2.871,1.335l-7.912,9.648Z" transform="translate(2.845 -46.274)" fill="#e4032c"/>
    <path id="path104" d="M26.386,74.465,34.8,64.183a4.722,4.722,0,0,1,3.672-1.736,4.571,4.571,0,0,1,2.971,1.068l4.607,3.772.267-.734a3.7,3.7,0,0,0-2.27-4.707L29.858,56.873a3.781,3.781,0,0,0-1.2-.2,3.734,3.734,0,0,0-3.505,2.47L19.776,74.465Z" transform="translate(2.089 -46.925)" fill="#e7392b"/>
    <path id="path106" d="M19.163,74.8l5.475-15.69a4.747,4.747,0,0,1,4.473-3.171h0a4.791,4.791,0,0,1,1.536.267l6.944,2.437-.033-1.5A3.705,3.705,0,0,0,33.851,53.5h-.033L18.8,53.7a3.69,3.69,0,0,0-3.639,3.739l.2,17.359Z" transform="translate(1.601 -47.259)" fill="#da2316"/>
    <path id="path108" d="M12.977,75.266h2.3l-.2-17.326a4.73,4.73,0,0,1,4.674-4.774l8.78-.1-.6-1.6a3.711,3.711,0,0,0-3.472-2.37,3.58,3.58,0,0,0-1.3.234L9.1,54.635a3.7,3.7,0,0,0-2.137,4.774Z" transform="translate(0.71 -47.725)" fill="#cd0c10"/>
    <path id="path110" d="M10.95,75.4h1.636L6.711,59.84a4.742,4.742,0,0,1,2.771-6.076l9.381-3.539-.935-1.1a3.736,3.736,0,0,0-2.8-1.269,3.651,3.651,0,0,0-2.4.9L1.269,58.538a3.73,3.73,0,0,0-.4,5.208Z" transform="translate(-0.001 -47.856)" fill="#bc1818"/>
  </g>
</svg>
