<svg xmlns="http://www.w3.org/2000/svg" xmlns:xlink="http://www.w3.org/1999/xlink" width="55.281" height="51.56" viewBox="0 0 55.281 51.56">
  <defs>
    <radialGradient id="radial-gradient" cx="0.5" cy="0.5" r="1.948" gradientUnits="objectBoundingBox">
      <stop offset="0" stop-color="#ffe066"/>
      <stop offset="0.5" stop-color="#fdc600"/>
      <stop offset="1" stop-color="#f0b500"/>
    </radialGradient>
    <radialGradient id="radial-gradient-2" cx="0.499" cy="0.5" r="0.389" xlink:href="#radial-gradient"/>
    <radialGradient id="radial-gradient-3" cx="0.5" cy="0.499" r="0.382" xlink:href="#radial-gradient"/>
    <radialGradient id="radial-gradient-4" cx="0.5" cy="0.5" r="0.403" xlink:href="#radial-gradient"/>
    <radialGradient id="radial-gradient-5" cx="0.502" cy="0.5" r="0.366" xlink:href="#radial-gradient"/>
    <radialGradient id="radial-gradient-6" cx="0.499" cy="0.5" r="0.39" xlink:href="#radial-gradient"/>
    <radialGradient id="radial-gradient-7" cx="0.498" cy="0.5" r="0.382" xlink:href="#radial-gradient"/>
    <radialGradient id="radial-gradient-8" cx="0.5" cy="0.5" r="0.403" xlink:href="#radial-gradient"/>
    <radialGradient id="radial-gradient-9" cx="0.502" cy="0.5" r="0.359" xlink:href="#radial-gradient"/>
    <radialGradient id="radial-gradient-10" cx="0.501" cy="0.5" r="0.366" xlink:href="#radial-gradient"/>
  </defs>
  <g id="g140" transform="translate(-0.042)">
    <g id="g138" transform="translate(0.041 0)">
      <g id="g136">
        <g id="g12" transform="translate(2.13 34.424)">
          <path id="path2" d="M7.067,32.861c.083.028.166.249.166.277.028.277.138,1.106.138,1.162,0,.249,0,.387-.1.387a.4.4,0,0,1-.346-.3,2.45,2.45,0,0,0-.705-1.037A1.621,1.621,0,0,0,5.2,33.013,1.62,1.62,0,0,0,3.541,34.7c0,1.023.733,1.466,2.005,2.324,1.106.747,1.992,1.494,1.992,2.794a2.51,2.51,0,0,1-1.176,2.033,4.058,4.058,0,0,1-1.964.512,5.619,5.619,0,0,1-1.881-.373,1.108,1.108,0,0,1-.332-.456c-.069-.484-.221-1.12-.221-1.355,0-.055.138-.277.207-.277.111,0,.332.373.526.816a2.237,2.237,0,0,0,1.867,1.148,1.678,1.678,0,0,0,1.743-1.743c0-.609-.29-1.259-1.8-2.213C3.278,37.121,2.42,36.277,2.42,35.06A2.375,2.375,0,0,1,3.209,33.3a3.053,3.053,0,0,1,2.13-.705,8.983,8.983,0,0,1,1.729.263Z" transform="translate(-1.964 -32.267)" fill="#fff"/>
          <path id="path4" d="M14.8,32.973c.111.387.36,1.037.636,1.784.747,2.1,1.826,4.951,2.075,5.546.47,1.176.705,1.3,1.355,1.452.235.069.346.138.346.249s-.1.194-.456.194c-.47,0-1.176-.069-1.812-.069-.456,0-.664.028-1.023.028s-.443-.1-.443-.18.083-.194.346-.235c.692-.138.636-.429.581-.733a20.539,20.539,0,0,0-.8-2.462c-.014-.055-.069-.138-.484-.138-.788,0-2.061.014-2.365.055-.055,0-.124.069-.152.111a11.532,11.532,0,0,0-.747,2.517c0,.166.055.415.705.622.249.069.387.152.387.263,0,.138-.221.194-.4.194-.249,0-.609-.041-1.134-.041s-1.286.069-1.494.069c-.263,0-.332-.055-.332-.138s.1-.221.318-.29c.719-.249.9-.29,1.328-1.231.332-.733,1.978-5.076,2.572-6.556a2.8,2.8,0,0,0,.124-.373,2.583,2.583,0,0,1,.1-.249l.346-.581c.1-.111.152-.194.235-.194.028.014.083.069.194.387Zm.456,4.661c-.249-.733-1-2.891-1.12-3.1-.041-.083-.069-.1-.111,0-.263.692-1.01,2.711-1.12,3.153a.07.07,0,0,0,.069.1c.581-.014,1.77,0,2.241-.041a.119.119,0,0,0,.041-.111Z" transform="translate(-1.159 -32.268)" fill="#fff"/>
          <path id="path6" d="M21.487,32.8c.387,0,.65.028,1.065.028.553,0,1.535-.041,1.881-.041.263,0,.36.055.36.166s-.111.18-.332.249c-.83.194-.94.346-.968.567-.083.65-.083,2.1-.083,4.232,0,1.12.041,2.5.1,2.974a.9.9,0,0,0,.484.539,10.621,10.621,0,0,0,1.383.069,9.851,9.851,0,0,0,1.023-.041.877.877,0,0,0,.581-.277,5.96,5.96,0,0,0,.816-.968c.152-.263.29-.318.36-.318s.111.152.055.387a11.6,11.6,0,0,0-.443,1.549c-.014.152-.29.249-.346.249-.166,0-1.48-.083-4.412-.083-.982,0-1.66.069-1.853.069-.277,0-.415-.028-.415-.152,0-.1.111-.221.346-.263.788-.166,1-.429,1.065-1,.028-.36.069-2.655.069-4.73,0-.581,0-1.563-.014-2.047-.014-.318-.083-.595-.761-.719-.29-.055-.4-.166-.4-.277C21.044,32.883,21.169,32.8,21.487,32.8Z" transform="translate(0.02 -32.247)" fill="#fff"/>
          <path id="path8" d="M36.8,32.851a1.672,1.672,0,0,0,.982-.263.4.4,0,0,1,.207-.083c.069,0,.124.124.055.332a8.206,8.206,0,0,0-.318,1.66c-.014.124-.124.277-.249.277-.1,0-.152-.1-.207-.456-.083-.747-.277-.816-1.162-.857-.249-.014-1.839-.014-2.019.028-.069.014-.124.152-.124.194v3.527c0,1.673,0,3.043.055,3.568.069.65.138.816,1.037,1.023.194.041.387.152.387.263,0,.152-.263.166-.4.166-.111,0-1.01-.069-1.646-.069-.719,0-1.452.1-1.646.1-.29,0-.429-.083-.429-.166s.138-.221.277-.249c1.01-.235,1.037-.47,1.079-1.563.028-.844.1-3.79.1-4.9V33.667c0-.111-.069-.194-.111-.194-.29-.041-1.549-.069-1.784-.069a1.284,1.284,0,0,0-1.065.332,2.906,2.906,0,0,0-.47.747c-.124.3-.221.29-.277.29-.083,0-.138-.194-.138-.332a14.534,14.534,0,0,0,.277-1.909c0-.083.124-.235.221-.235.069,0,.069.1.235.235a.965.965,0,0,0,.484.277c.373.041,1.521.083,3.375.083.719,0,2.683-.014,3.278-.041Z" transform="translate(0.885 -32.298)" fill="#fff"/>
          <path id="path10" d="M49.048,37.357A5.027,5.027,0,0,1,47,41.534a5.259,5.259,0,0,1-2.835.83,5.038,5.038,0,0,1-3.748-1.646,4.868,4.868,0,0,1-1.189-3.25A4.745,4.745,0,0,1,41.1,33.6a5.141,5.141,0,0,1,2.946-1.01,4.845,4.845,0,0,1,5.007,4.772Zm-7.3-3.458a4.579,4.579,0,0,0-1.12,3.388c0,2.144,1.577,4.606,3.886,4.606a2.41,2.41,0,0,0,1.895-.692,4.613,4.613,0,0,0,1.231-3.4,5.147,5.147,0,0,0-1.743-3.942,3.843,3.843,0,0,0-2.158-.775,3.046,3.046,0,0,0-1.992.816Z" transform="translate(1.973 -32.268)" fill="#fff"/>
        </g>
        <g id="g106" transform="translate(1.477 0.138)">
          <path id="path21" d="M51.759,31.883a37.556,37.556,0,0,0-48.794,0,47.7,47.7,0,0,1,24.4-6.5A47.7,47.7,0,0,1,51.759,31.883Z" transform="translate(-1.205 0.992)" fill="url(#radial-gradient)"/>
          <g id="g104">
            <path id="path30" d="M42.473,8.768c-.429-.138-.595.387-1.535.083s-.761-.83-1.189-.968a.26.26,0,0,0-.346.138L34.562,24.7c.761.221,1.508.47,2.241.733L42.681,9.086A.276.276,0,0,0,42.473,8.768Z" transform="translate(2.133 -0.594)" fill="url(#radial-gradient-2)"/>
            <path id="path39" d="M36.119,11.673c-.4-.083-.512.415-1.369.221s-.761-.678-1.162-.761a.249.249,0,0,0-.3.166l-2.2,12.171c.775.138,1.535.3,2.3.484l2.946-12a.237.237,0,0,0-.207-.277Z" transform="translate(1.766 -0.249)" fill="url(#radial-gradient-3)"/>
            <path id="path48" d="M49.642,6.7c-.443-.194-.692.36-1.687-.083s-.733-1-1.189-1.189a.293.293,0,0,0-.387.111L37.927,26.26q1.1.456,2.158.954L49.822,7.078A.3.3,0,0,0,49.642,6.7Z" transform="translate(2.489 -0.854)" fill="url(#radial-gradient-4)"/>
            <path id="path57" d="M31.972,6.271c-.443-.041-.5.512-1.48.4s-.927-.65-1.369-.705a.286.286,0,0,0-.318.207L27.532,23.5c.788.055,1.563.138,2.337.249L32.221,6.548A.245.245,0,0,0,31.972,6.271Z" transform="translate(1.391 -0.794)" fill="url(#radial-gradient-5)"/>
            <path id="path66" d="M11.1,7.883c-.429.138-.249.664-1.189.968S8.8,8.629,8.376,8.768a.266.266,0,0,0-.194.318L14.06,25.42c.733-.263,1.48-.512,2.241-.733L11.446,8.021A.26.26,0,0,0,11.1,7.883Z" transform="translate(-0.655 -0.594)" fill="url(#radial-gradient-6)"/>
            <path id="path75" d="M17,11.134c-.4.083-.29.581-1.162.761s-.982-.3-1.369-.221a.239.239,0,0,0-.207.263l2.946,12c.761-.18,1.521-.346,2.3-.484L17.3,11.286A.242.242,0,0,0,17,11.134Z" transform="translate(-0.012 -0.249)" fill="url(#radial-gradient-7)"/>
            <path id="path84" d="M4.447,5.432c-.456.194-.207.761-1.189,1.189S2.026,6.511,1.57,6.7a.3.3,0,0,0-.18.373l9.737,20.137q1.058-.519,2.158-.954L4.834,5.543A.281.281,0,0,0,4.447,5.432Z" transform="translate(-1.373 -0.854)" fill="url(#radial-gradient-8)"/>
            <path id="path93" d="M26.787,1.288c-.5,0-.5.609-1.563.609s-1.079-.609-1.577-.609a.3.3,0,0,0-.318.263l.705,22.364c.387-.014.788-.014,1.176-.014s.788.014,1.176.014l.705-22.364c.014-.152-.124-.263-.3-.263Z" transform="translate(0.947 -1.288)" fill="url(#radial-gradient-9)"/>
            <path id="path102" d="M21.4,5.967c-.443.041-.387.595-1.369.705s-1.037-.456-1.48-.4a.274.274,0,0,0-.263.277l2.351,17.205c.775-.111,1.549-.194,2.337-.249L21.7,6.174A.27.27,0,0,0,21.4,5.967Z" transform="translate(0.414 -0.794)" fill="url(#radial-gradient-10)"/>
          </g>
        </g>
        <rect id="rect108" width="55.281" height="51.505" fill="none"/>
        <g id="g134" transform="translate(4.191 47.784)">
          <path id="path110" d="M4.865,46.159c.318,0,1.037-.014,1.978-.014.028,0,.041-.028.055-.138,0-.069,0-.761-.014-.968s-.055-.235-.29-.3c-.069-.028-.138-.055-.138-.1s.055-.055.166-.055c.069,0,.415.014.539.014.18,0,.429-.014.484-.014.083,0,.152.014.152.055s-.041.069-.152.1c-.221.055-.263.152-.277.3-.028.277-.041.844-.041,1.743,0,.235.014.705.014.788.014.207.069.235.3.3.069.028.124.069.124.1s-.041.055-.152.055c-.083,0-.277-.014-.443-.014-.124,0-.512.028-.622.028-.083,0-.138-.014-.138-.055s.055-.083.111-.1c.29-.083.318-.138.332-.526.014-.221.028-.595.028-.857,0-.1-.028-.111-.069-.111-.83,0-1.867-.014-1.978,0a.129.129,0,0,0-.055.1c-.014.138,0,.816,0,.968,0,.249.069.346.29.415.111.028.152.055.152.111s-.083.055-.152.055c-.041,0-.36-.028-.553-.028-.124,0-.346.028-.526.028-.111,0-.166-.028-.166-.055,0-.055.069-.083.124-.1.277-.069.318-.124.332-.332s.055-.816.055-1.687c0-.1.014-.581,0-.816-.014-.18-.041-.249-.263-.3-.111-.028-.152-.055-.152-.1s.069-.055.152-.055c.152,0,.346.014.484.014.221,0,.387-.014.512-.014s.166.028.166.055c0,.055-.041.083-.152.1-.249.041-.263.124-.277.346-.014.18-.028.885-.014.968s.028.1.069.1Z" transform="translate(-3.828 -44.361)" fill="#fff"/>
          <path id="path112" d="M11.718,46.251a1.874,1.874,0,0,1-.761,1.549,1.924,1.924,0,0,1-1.051.3,1.786,1.786,0,0,1-1.826-1.812,1.742,1.742,0,0,1,.692-1.425,1.957,1.957,0,0,1,1.093-.373,1.773,1.773,0,0,1,1.853,1.756Zm-2.7-1.272a1.683,1.683,0,0,0-.415,1.245,1.639,1.639,0,0,0,1.438,1.7.948.948,0,0,0,.705-.249,1.732,1.732,0,0,0,.456-1.259,1.869,1.869,0,0,0-.65-1.452,1.392,1.392,0,0,0-.8-.29A1.142,1.142,0,0,0,9.021,44.979Z" transform="translate(-3.378 -44.37)" fill="#fff"/>
          <path id="path114" d="M14.712,44.589a.622.622,0,0,0,.36-.1c.041-.028.055-.028.069-.028s.041.041.028.124a2.679,2.679,0,0,0-.111.609.117.117,0,0,1-.1.1c-.041,0-.055-.041-.069-.166-.028-.277-.1-.3-.429-.318-.1,0-.678,0-.747.014-.028,0-.041.055-.041.069v1.3c0,.622,0,1.12.028,1.314.028.235.055.3.387.373.069.014.138.055.138.1s-.1.069-.152.069-.373-.028-.609-.028c-.263,0-.539.041-.609.041-.111,0-.152-.028-.152-.069s.055-.083.1-.083c.373-.083.387-.18.4-.581.014-.318.041-1.4.041-1.812V44.88c0-.041-.028-.069-.041-.069-.111-.014-.581-.028-.664-.028-.207,0-.318.028-.387.124a.945.945,0,0,0-.18.277c-.041.111-.083.111-.1.111s-.055-.069-.055-.124a5.322,5.322,0,0,0,.1-.705A.1.1,0,0,1,12,44.382c.028,0,.028.041.083.083a.306.306,0,0,0,.18.1c.138.014.567.028,1.245.028.263.014.982.014,1.2,0Z" transform="translate(-2.983 -44.382)" fill="#fff"/>
          <path id="path116" d="M17.128,44.586a4.47,4.47,0,0,0,.484-.014c.014,0,.041.028.055.055,0,.249.014.4.014.5s-.028.138-.083.138-.069-.069-.083-.124c-.069-.277-.18-.332-.36-.36a6.148,6.148,0,0,0-.761-.028c-.014,0-.069.028-.083.152s-.028,1.134-.014,1.217c0,.028.014.055.041.055h.346c.5,0,.526-.028.609-.263.028-.083.069-.111.1-.111s.041.069.041.111a3.754,3.754,0,0,0-.014.387c0,.138.014.221.014.318s-.014.152-.055.152-.069-.055-.1-.111c-.069-.249-.1-.263-.415-.277-.166-.014-.387-.014-.526-.014-.028,0-.041.041-.041.041-.014.111-.014.609-.014.83a1.825,1.825,0,0,0,.055.443.134.134,0,0,0,.1.111,3.112,3.112,0,0,0,.484.041,2.372,2.372,0,0,0,.512-.041.644.644,0,0,0,.443-.4c.055-.111.1-.152.124-.152s.055.083.041.138a3.055,3.055,0,0,1-.194.567c-.014.014-.069.069-.1.069-.055,0-.857-.041-1.729-.041-.277,0-.4.028-.595.028-.1,0-.166-.014-.166-.069s.069-.069.152-.083c.263-.069.373-.1.387-.387.014-.221.041-.857.041-1.508v-.9c-.014-.235-.069-.3-.29-.346-.111-.028-.152-.055-.152-.1s.069-.069.152-.069c.249,0,.456.028.816.028h.761Z" transform="translate(-2.62 -44.365)" fill="#fff"/>
          <path id="path118" d="M18.479,44.57c.138,0,.235.014.387.014.207,0,.567-.014.692-.014.1,0,.138.014.138.055s-.041.069-.124.1c-.3.069-.346.124-.36.207-.028.235-.028.775-.028,1.563a10.936,10.936,0,0,0,.041,1.106.449.449,0,0,0,.18.207c.138.014.332.028.512.028a2.684,2.684,0,0,0,.373-.014.262.262,0,0,0,.207-.1,1.916,1.916,0,0,0,.3-.36c.055-.1.111-.124.138-.124s.041.055.014.138a4.9,4.9,0,0,0-.166.581c0,.055-.111.1-.124.1-.069,0-.553-.028-1.632-.028-.36,0-.609.028-.692.028s-.152-.014-.152-.055.041-.083.124-.1c.29-.055.373-.152.387-.373.014-.138.028-.982.028-1.743v-.761c0-.111-.028-.221-.277-.263-.111-.028-.152-.069-.152-.1.028-.069.069-.1.18-.1Z" transform="translate(-2.311 -44.362)" fill="#fff"/>
          <path id="path120" d="M24.24,45.377c0,.318-.318.456-.526.595a.019.019,0,0,0,0,.028,4.821,4.821,0,0,1,.871.83c.028.041.041.028.083,0a5.153,5.153,0,0,0,.539-.733c.069-.111.069-.138.069-.152,0-.041-.069-.083-.235-.111-.041,0-.111-.028-.111-.069s.055-.069.138-.069a5.384,5.384,0,0,0,.539-.014c.111-.014.318-.041.373-.041s.111.028.111.055-.041.069-.111.083a1.251,1.251,0,0,0-.636.456c-.166.18-.484.595-.636.747a.062.062,0,0,0,0,.069l.29.415a.7.7,0,0,0,.581.29.962.962,0,0,0,.4-.111c.041-.028.055,0,.055.028a.264.264,0,0,1-.1.166,1.1,1.1,0,0,1-.719.249.955.955,0,0,1-.346-.055.453.453,0,0,1-.221-.207,4.038,4.038,0,0,0-.249-.429s-.028-.014-.028,0a3.02,3.02,0,0,1-.622.581,1.007,1.007,0,0,1-.512.138.933.933,0,0,1-.94-.94,1.041,1.041,0,0,1,.484-.8,3.544,3.544,0,0,1,.318-.221c.014,0,.014-.028,0-.028a.842.842,0,0,1-.36-.609A.7.7,0,0,1,23,44.976a.9.9,0,0,1,.512-.194.634.634,0,0,1,.733.595Zm.055,1.881a.117.117,0,0,0-.028-.124,4.751,4.751,0,0,0-.94-.927.086.086,0,0,0-.111.014.982.982,0,0,0-.456.788.713.713,0,0,0,.235.512.821.821,0,0,0,.526.207,1.135,1.135,0,0,0,.775-.47Zm-1.148-1.95a.805.805,0,0,0,.415.595c.028.014.055,0,.069,0a.435.435,0,0,0,.138-.138.6.6,0,0,0,.1-.373.475.475,0,0,0-.415-.512.387.387,0,0,0-.3.429Z" transform="translate(-1.876 -44.34)" fill="#fff"/>
          <path id="path122" d="M30.075,44.576c.138.014.318.083.4.1.028,0,.083.041.083.152s.028.346.041.47-.041.18-.083.18-.055-.055-.083-.138a.825.825,0,0,0-.221-.4,1.321,1.321,0,0,0-.857-.277,1.419,1.419,0,0,0-1.4,1.508,1.987,1.987,0,0,0,.18.871,1.537,1.537,0,0,0,1.342.857,1.176,1.176,0,0,0,1.079-.65c.069-.111.1-.138.111-.138.055,0,.055.124.041.18a1.977,1.977,0,0,1-.207.539.423.423,0,0,1-.166.138,3.008,3.008,0,0,1-.968.152,2.051,2.051,0,0,1-1.508-.622,1.779,1.779,0,0,1-.443-1.217A1.75,1.75,0,0,1,28,45a2.18,2.18,0,0,1,1.438-.484,2.02,2.02,0,0,1,.636.055Z" transform="translate(-1.335 -44.368)" fill="#fff"/>
          <path id="path124" d="M32.822,44.633c.041.138.138.387.235.664.277.775.678,1.826.761,2.047.18.443.263.484.5.539.083.028.124.055.124.1s-.041.069-.166.069c-.18,0-.429-.028-.664-.028-.166,0-.249.014-.373.014s-.166-.041-.166-.069.028-.069.124-.083c.249-.055.235-.152.207-.277a7.746,7.746,0,0,0-.3-.913c0-.028-.028-.055-.18-.055a7.42,7.42,0,0,0-.871.028c-.028,0-.041.028-.055.041a4.345,4.345,0,0,0-.277.927c0,.069.028.152.263.235.1.028.138.055.138.1s-.083.069-.152.069c-.1,0-.221-.014-.415-.014s-.47.028-.553.028-.124-.028-.124-.055.041-.083.111-.111c.263-.083.332-.111.484-.456.124-.277.733-1.881.954-2.42a.451.451,0,0,0,.041-.138.36.36,0,0,1,.041-.1l.124-.207c.041-.041.055-.069.083-.069.055,0,.069.028.111.138ZM33,46.362c-.1-.277-.36-1.065-.415-1.148-.014-.028-.028-.041-.041,0-.1.249-.373,1-.415,1.162,0,.014,0,.041.028.041.207,0,.65,0,.83-.014A.139.139,0,0,0,33,46.362Z" transform="translate(-0.971 -44.37)" fill="#fff"/>
          <path id="path126" d="M36.455,44.59a.212.212,0,0,1,.069.1c.014.1.055.415.055.429,0,.1,0,.138-.041.138a.144.144,0,0,1-.124-.111.957.957,0,0,0-.263-.387.635.635,0,0,0-.373-.124.592.592,0,0,0-.609.622c0,.373.277.539.733.857.415.277.733.553.733,1.037a.929.929,0,0,1-.429.747,1.5,1.5,0,0,1-.719.194,1.987,1.987,0,0,1-.692-.138.4.4,0,0,1-.124-.166c-.028-.18-.083-.415-.083-.5a.176.176,0,0,1,.069-.1c.041,0,.124.138.194.3a.827.827,0,0,0,.692.429.618.618,0,0,0,.636-.636c0-.221-.111-.456-.664-.816-.456-.29-.775-.595-.775-1.051a.89.89,0,0,1,.29-.65,1.117,1.117,0,0,1,.788-.263,2.717,2.717,0,0,1,.636.083Z" transform="translate(-0.578 -44.369)" fill="#fff"/>
          <path id="path128" d="M37.534,45.109c-.014-.249-.014-.318-.318-.373-.124-.028-.152-.055-.152-.1s.055-.069.138-.069c.138,0,.4.014.581.014.263,0,.387-.014.567-.014.083,0,.138.014.138.069s-.055.069-.138.083c-.3.069-.3.194-.318.346C38,45.247,38,45.593,38,46.63c0,.29,0,.622.014.788.014.29.041.387.387.456.1.014.138.055.138.083s-.083.069-.138.069c-.277,0-.65-.028-.788-.028-.166,0-.207.014-.4.014-.1,0-.138-.041-.138-.069s.055-.069.166-.083c.263-.055.29-.138.3-.387.014-.18.028-.733.028-1.189-.028-.346-.028-1-.041-1.176Z" transform="translate(-0.316 -44.362)" fill="#fff"/>
          <path id="path130" d="M39,44.571c.111,0,.373.014.65.014a.245.245,0,0,1,.111.069c.083.1.207.249.415.526.235.3,1.411,1.577,1.77,1.964.028.028.055-.028.055-.041.028-.166.014-.747.014-1.508,0-.18-.014-.36-.028-.526,0-.111-.041-.235-.332-.318-.111-.028-.138-.069-.138-.124s.069-.041.138-.041h.456c.194,0,.36-.028.5-.028.083,0,.124.014.124.055s-.028.083-.124.111c-.221.055-.318.1-.346.387-.014.194-.055,1.245-.055,2.158,0,.221.041.622.041.705,0,.055-.028.111-.069.111-.069,0-.194-.111-.235-.166-.1-.111-.18-.249-.332-.429-.5-.595-1.425-1.632-1.895-2.213-.028-.028-.055-.014-.055.014,0,.138-.028.29-.028.705,0,.484-.014,1.3,0,1.466.028.249.083.332.332.4.111.028.138.069.138.1,0,.055-.069.069-.166.069-.152,0-.373-.028-.567-.028-.124,0-.249.014-.346.014-.069,0-.138,0-.138-.055s.055-.069.111-.083c.249-.083.346-.111.373-.5.028-.429.1-1.7.1-2.144,0-.194-.028-.235-.041-.249-.152-.18-.207-.18-.443-.249-.055-.014-.111-.041-.111-.083-.055-.069,0-.083.124-.083Z" transform="translate(-0.127 -44.363)" fill="#fff"/>
          <path id="path132" d="M46.568,46.251a1.874,1.874,0,0,1-.761,1.549,1.924,1.924,0,0,1-1.051.3,1.786,1.786,0,0,1-1.826-1.812,1.742,1.742,0,0,1,.692-1.425,1.957,1.957,0,0,1,1.093-.373,1.773,1.773,0,0,1,1.853,1.756Zm-2.683-1.272a1.683,1.683,0,0,0-.415,1.245,1.639,1.639,0,0,0,1.438,1.7.948.948,0,0,0,.705-.249,1.732,1.732,0,0,0,.456-1.259,1.9,1.9,0,0,0-.636-1.452,1.392,1.392,0,0,0-.8-.29A1.094,1.094,0,0,0,43.885,44.979Z" transform="translate(0.303 -44.37)" fill="#fff"/>
        </g>
      </g>
    </g>
  </g>
</svg>
