<svg width="36.9" height="34.6" viewBox="0 0 9.763 9.155" xmlns="http://www.w3.org/2000/svg"><path d="M6.668 5.742c0-.053-.08-.08-.08-.08-1.508-.45-2.752-1.64-3.122-3.043l-.08-.238s0-.053-.052-.053c-.053 0-.053.053-.053.053l-.08.238C2.831 4.022 1.561 5.212.08 5.662c0 0-.079.027-.079.08 0 .052.08.079.08.079C1.586 6.27 2.83 7.46 3.2 8.864l.08.238s0 .053.053.053.053-.053.053-.053l.08-.238c.37-1.403 1.64-2.593 3.121-3.043-.026 0 .08-.027.08-.08zM9.763 1.72c0-.027-.053-.027-.053-.027-.767-.238-1.428-.846-1.614-1.56L8.07.026S8.07 0 8.043 0c-.026 0-.026.027-.026.027L7.99.132c-.185.715-.846 1.35-1.614 1.561 0 0-.053 0-.053.027 0 .026.053.026.053.026.768.238 1.43.847 1.614 1.561l.027.106s0 .027.026.027c.027 0 .027-.027.027-.027l.026-.106c.186-.714.847-1.349 1.614-1.56 0 .026.053 0 .053-.027z" fill="#df040b"/></svg>