<svg xmlns="http://www.w3.org/2000/svg" width="34.726" height="34" viewBox="0 0 34.726 34">
  <g id="football__red-outline__medium" transform="translate(0.613 0.25)">
    <circle id="Elipse_796" data-name="Elipse 796" cx="16" cy="16" r="16" transform="translate(0.75 0.75)" fill="none" stroke="#ff293e" stroke-linecap="round" stroke-linejoin="round" stroke-width="2"/>
    <path id="Trazado_5547" data-name="Trazado 5547" d="M9.7,20.785,6.985,12.393l7.132-5.185,7.132,5.185-2.716,8.391Z" transform="translate(2.633 2.727)" fill="none" stroke="#ff293e" stroke-linecap="round" stroke-linejoin="round" stroke-width="2"/>
    <path id="Trazado_5548" data-name="Trazado 5548" d="M19.933,1.6,13.816,5.724,7.7,1.6" transform="translate(2.934 0.359)" fill="none" stroke="#ff293e" stroke-linecap="round" stroke-linejoin="round" stroke-width="2"/>
    <path id="Trazado_5549" data-name="Trazado 5549" d="M14.6,25.108,17.641,18.9l6.946-1.067" transform="translate(5.847 7.212)" fill="none" stroke="#ff293e" stroke-linecap="round" stroke-linejoin="round" stroke-width="2"/>
    <path id="Trazado_5550" data-name="Trazado 5550" d="M24.661,16.393l-4.874-4.854,1.045-6.882" transform="translate(8.038 1.65)" fill="none" stroke="#ff293e" stroke-linecap="round" stroke-linejoin="round" stroke-width="2"/>
    <line id="Línea_234" data-name="Línea 234" y2="3.851" transform="translate(16.75 6.083)" fill="none" stroke="#ff293e" stroke-linecap="round" stroke-linejoin="round" stroke-width="2"/>
    <line id="Línea_235" data-name="Línea 235" y1="1.931" x2="3.942" transform="translate(23.883 13.189)" fill="none" stroke="#ff293e" stroke-linecap="round" stroke-linejoin="round" stroke-width="2"/>
    <path id="Trazado_5551" data-name="Trazado 5551" d="M.786,16.393,5.66,11.539,4.615,4.657" transform="translate(0.015 1.65)" fill="none" stroke="#ff293e" stroke-linecap="round" stroke-linejoin="round" stroke-width="2"/>
    <line id="Línea_236" data-name="Línea 236" x1="3.942" y1="1.931" transform="translate(5.675 13.189)" fill="none" stroke="#ff293e" stroke-linecap="round" stroke-linejoin="round" stroke-width="2"/>
    <line id="Línea_237" data-name="Línea 237" x2="2.322" y2="2.6" transform="translate(21.166 23.511)" fill="none" stroke="#ff293e" stroke-linecap="round" stroke-linejoin="round" stroke-width="2"/>
    <path id="Trazado_5552" data-name="Trazado 5552" d="M12.366,25.108,9.324,18.9,2.378,17.832" transform="translate(0.687 7.212)" fill="none" stroke="#ff293e" stroke-linecap="round" stroke-linejoin="round" stroke-width="2"/>
    <line id="Línea_238" data-name="Línea 238" x1="2.322" y2="2.6" transform="translate(10.012 23.511)" fill="none" stroke="#ff293e" stroke-linecap="round" stroke-linejoin="round" stroke-width="2"/>
  </g>
</svg>
