<svg xmlns="http://www.w3.org/2000/svg" width="34" height="34" viewBox="0 0 34 34">
  <g id="tennis__red-outline__medium" transform="translate(0.25 0.25)">
    <circle id="Elipse_795" data-name="Elipse 795" cx="16" cy="16" r="16" transform="translate(0.75 0.75)" fill="none" stroke="#ff293e" stroke-linecap="round" stroke-linejoin="round" stroke-width="2"/>
    <path id="Trazado_5541" data-name="Trazado 5541" d="M6,6.007A19.132,19.132,0,0,1,7.2,8.614" transform="translate(2.217 2.22)" fill="none" stroke="#ff293e" stroke-linecap="round" stroke-linejoin="round" stroke-width="2"/>
    <path id="Trazado_5542" data-name="Trazado 5542" d="M7.539,10.621a14.5,14.5,0,0,1-.047,3.7" transform="translate(2.847 4.168)" fill="none" stroke="#ff293e" stroke-linecap="round" stroke-linejoin="round" stroke-width="2"/>
    <path id="Trazado_5543" data-name="Trazado 5543" d="M7.183,15.983a17.543,17.543,0,0,1-1.526,2.869" transform="translate(2.072 6.432)" fill="none" stroke="#ff293e" stroke-linecap="round" stroke-linejoin="round" stroke-width="2"/>
    <path id="Trazado_5544" data-name="Trazado 5544" d="M18.357,6.007a19.124,19.124,0,0,0-1.2,2.607" transform="translate(6.927 2.22)" fill="none" stroke="#ff293e" stroke-linecap="round" stroke-linejoin="round" stroke-width="2"/>
    <path id="Trazado_5545" data-name="Trazado 5545" d="M16.5,10.621a14.5,14.5,0,0,0,.047,3.7" transform="translate(6.611 4.168)" fill="none" stroke="#ff293e" stroke-linecap="round" stroke-linejoin="round" stroke-width="2"/>
    <path id="Trazado_5546" data-name="Trazado 5546" d="M17.27,15.983A17.385,17.385,0,0,0,18.8,18.852" transform="translate(6.975 6.432)" fill="none" stroke="#ff293e" stroke-linecap="round" stroke-linejoin="round" stroke-width="2"/>
  </g>
</svg>
