<svg xmlns="http://www.w3.org/2000/svg" width="15.35" height="15.35" viewBox="0 0 15.35 15.35">
  <g id="interface-edit-view-off" transform="translate(-0.3 -0.3)">
    <path id="Trazado_5538" data-name="Trazado 5538" d="M1.1,10.624a7.93,7.93,0,0,0,7.15,4.592,7.713,7.713,0,0,0,1.771-.2L3.068,8A7.681,7.681,0,0,0,1.1,10.624Z" transform="translate(-0.275 -2.649)" fill="rgba(255,255,255,0.6)" fill-rule="evenodd"/>
    <path id="Trazado_5539" data-name="Trazado 5539" d="M12.239,11.321a7.541,7.541,0,0,0,2.886-3.346,7.93,7.93,0,0,0-7.15-4.592,8.309,8.309,0,0,0-3.083.59L1.218.3.3,1.218,14.732,15.65l.918-.918ZM10.4,9.549,9.287,8.434a.973.973,0,0,0,.066-.459A1.386,1.386,0,0,0,7.975,6.6a1.116,1.116,0,0,0-.459.066L6.4,5.548a3.006,3.006,0,0,1,3.542.525A2.881,2.881,0,0,1,10.4,9.549Z" fill="rgba(255,255,255,0.6)" fill-rule="evenodd"/>
  </g>
</svg>
