<svg xmlns="http://www.w3.org/2000/svg" width="27.6" height="34" viewBox="0 0 27.6 34">
  <g id="poker__red-outline__medium" transform="translate(-16.5 -3.375)">
    <rect id="Rectángulo_157" data-name="Rectángulo 157" width="25.6" height="32" rx="2" transform="translate(17.5 4.375)" fill="none" stroke="#ff293e" stroke-linecap="round" stroke-linejoin="round" stroke-width="2"/>
    <path id="Trazado_5200" data-name="Trazado 5200" d="M35,19.687a.533.533,0,0,1,.533.533" transform="translate(-11.81 -10.156)" fill="none" stroke="#ff293e" stroke-linecap="round" stroke-linejoin="round" stroke-width="2"/>
    <path id="Trazado_5201" data-name="Trazado 5201" d="M32.812,20.221a.533.533,0,0,1,.533-.533" transform="translate(-10.156 -10.156)" fill="none" stroke="#ff293e" stroke-linecap="round" stroke-linejoin="round" stroke-width="2"/>
    <path id="Trazado_5202" data-name="Trazado 5202" d="M33.346,22.408a.533.533,0,0,1-.533-.533" transform="translate(-10.156 -11.81)" fill="none" stroke="#ff293e" stroke-linecap="round" stroke-linejoin="round" stroke-width="2"/>
    <path id="Trazado_5203" data-name="Trazado 5203" d="M35.533,21.875a.533.533,0,0,1-.533.533" transform="translate(-11.81 -11.81)" fill="none" stroke="#ff293e" stroke-linecap="round" stroke-linejoin="round" stroke-width="2"/>
    <path id="Trazado_5204" data-name="Trazado 5204" d="M105,115.937a.533.533,0,0,1,.533.533" transform="translate(-67.589 -85.785)" fill="none" stroke="#ff293e" stroke-linecap="round" stroke-linejoin="round" stroke-width="2"/>
    <path id="Trazado_5205" data-name="Trazado 5205" d="M102.812,116.471a.533.533,0,0,1,.533-.533" transform="translate(-65.935 -85.785)" fill="none" stroke="#ff293e" stroke-linecap="round" stroke-linejoin="round" stroke-width="2"/>
    <path id="Trazado_5206" data-name="Trazado 5206" d="M103.346,118.658a.533.533,0,0,1-.533-.533" transform="translate(-65.935 -87.439)" fill="none" stroke="#ff293e" stroke-linecap="round" stroke-linejoin="round" stroke-width="2"/>
    <path id="Trazado_5207" data-name="Trazado 5207" d="M105.533,118.125a.533.533,0,0,1-.533.533" transform="translate(-67.589 -87.439)" fill="none" stroke="#ff293e" stroke-linecap="round" stroke-linejoin="round" stroke-width="2"/>
    <path id="Trazado_5208" data-name="Trazado 5208" d="M57.834,48.6a1.067,1.067,0,0,0-1.775,0l-3.379,4.742a1.067,1.067,0,0,0,0,1.183l3.376,4.742a1.067,1.067,0,0,0,1.775,0l3.379-4.742a1.067,1.067,0,0,0,0-1.183Z" transform="translate(-26.467 -33.084)" fill="none" stroke="#ff293e" stroke-linecap="round" stroke-linejoin="round" stroke-width="2"/>
  </g>
</svg>
